SplineFontDB: 3.0
FontName: Muli-Medium
FullName: Muli Medium
FamilyName: Muli
Weight: Medium
Copyright: 2013 (c) vernon adams
Version: 1
ItalicAngle: 0
UnderlinePosition: 0
UnderlineWidth: 0
Ascent: 1638
Descent: 410
UFOAscent: 1681
UFODescent: -518
LayerCount: 2
Layer: 0 0 "Back"  1
Layer: 1 0 "Fore"  0
FSType: 0
OS2Version: 0
OS2_WeightWidthSlopeOnly: 0
OS2_UseTypoMetrics: 1
CreationTime: 1367898900
ModificationTime: 1367972615
PfmFamily: 33
TTFWeight: 500
TTFWidth: 5
LineGap: 0
VLineGap: 0
OS2TypoAscent: 1978
OS2TypoAOffset: 0
OS2TypoDescent: -679
OS2TypoDOffset: 0
OS2TypoLinegap: 0
OS2WinAscent: 1978
OS2WinAOffset: 0
OS2WinDescent: 679
OS2WinDOffset: 0
HheadAscent: 1978
HheadAOffset: 0
HheadDescent: -679
HheadDOffset: 0
OS2Vendor: 'newt'
Lookup: 258 0 0 "'kern' Horizontal Kerning lookup 0"  {"'kern' Horizontal Kerning lookup 0 per glyph data 0"  "'kern' Horizontal Kerning lookup 0 kerning class 1"  } ['kern' ('DFLT' <'dflt' > 'latn' <'dflt' > ) ]
Lookup: 260 0 0 "markMarkPositioninglookup0"  {"markMarkPositioninglookup0 subtable"  } ['mark' ('DFLT' <'dflt' > 'grek' <'dflt' > 'latn' <'dflt' > ) ]
MarkAttachClasses: 1
DEI: 91125
KernClass2: 13 21 "'kern' Horizontal Kerning lookup 0 kerning class 1" 
 89 A Aacute Abreve Acircumflex Adieresis Agrave Amacron Aogonek Aring Atilde uni0200 uni0202
 16 D Dcaron uni1E0A
 9 F uni1E1E
 9 K uni0136
 23 L Lacute Lcaron uni013B
 9 P uni1E56
 32 T Tcaron uni0162 uni021A uni1E6A
 1 V
 37 W Wacute Wcircumflex Wdieresis Wgrave
 37 Y Yacute Ycircumflex Ydieresis Ygrave
 9 b uni1E03
 9 f uni1E1F
 89 A Aacute Abreve Acircumflex Adieresis Agrave Amacron Aogonek Aring Atilde uni0200 uni0202
 47 C Cacute Ccaron Ccedilla Ccircumflex Cdotaccent
 48 G Gbreve Gcedilla Gcircumflex Gdotaccent uni01F4
 13 J Jcircumflex
 89 O Oacute Obreve Ocircumflex Odieresis Ograve Ohungarumlaut Omacron Otilde uni020C uni020E
 32 T Tcaron uni0162 uni021A uni1E6A
 1 V
 37 Y Yacute Ycircumflex Ydieresis Ygrave

StartChar: A
Encoding: 33 65 0
Width: 1416
VWidth: 0
Flags: HW
AnchorPoint: "ogonek" 1260 0 basechar 0
AnchorPoint: "bottom" 736 0 basechar 0
AnchorPoint: "top" 692 1536 basechar 0
LayerCount: 2
Fore
SplineSet
22 0 m 1
 596 1456 l 1
 817 1456 l 1
 1395 0 l 1
 1161 0 l 1
 1010 387 l 1
 400 387 l 1
 252 0 l 1
 22 0 l 1
458 563 m 1
 946 563 l 1
 703 1229 l 1
 458 563 l 1
EndSplineSet
EndChar

StartChar: AE
Encoding: 132 198 1
Width: 2112
VWidth: 0
Flags: W
LayerCount: 2
Fore
SplineSet
23.25 0 m 1
 869 1456 l 1
 1914.35 1456 l 1
 1914.35 1271.9 l 1
 1235.75 1271.9 l 1
 1273.35 836.65 l 1
 1892.05 836.65 l 1
 1892.05 659.2 l 1
 1293.5 659.2 l 1
 1337.4 183.45 l 1
 1939.7 183.45 l 1
 1939.7 0 l 1
 1128.35 0 l 1
 1095.1 386.1 l 1
 492.45 386.1 l 1
 273.1 0 l 1
 23.25 0 l 1
577.15 551.45 m 1
 1080.05 551.45 l 1
 1027.15 1271.9 l 1
 984 1271.9 l 1
 577.15 551.45 l 1
EndSplineSet
EndChar

StartChar: B
Encoding: 34 66 11
Width: 1356
VWidth: 0
Flags: W
AnchorPoint: "bottom" 676 0 basechar 0
AnchorPoint: "top" 700 1536 basechar 0
LayerCount: 2
Fore
SplineSet
196 0 m 1
 196 1456 l 1
 575 1456 l 2
 837 1456 1174 1429 1174 1101 c 0
 1174 958 1103 834 944 782 c 1
 1136 744 1243 607 1243 421 c 0
 1243 199 1071 0 718 0 c 2
 196 0 l 1
409 182 m 1
 679 182 l 2
 898 182 1017 270 1017 428 c 0
 1017 620 913 675 657 675 c 2
 409 675 l 1
 409 182 l 1
408 851 m 1
 637 851 l 2
 798 851 950 897 950 1073 c 0
 950 1246 815 1276 608 1276 c 2
 408 1276 l 1
 408 851 l 1
EndSplineSet
EndChar

StartChar: C
Encoding: 35 67 12
Width: 1402
VWidth: 0
Flags: W
AnchorPoint: "bottom" 826 -20 basechar 0
AnchorPoint: "top" 790 1536 basechar 0
LayerCount: 2
Fore
SplineSet
827 -22 m 0
 455 -22 106 227 106 720 c 0
 106 1180 420 1482 815 1482 c 0
 988 1482 1145 1442 1283 1330 c 1
 1199 1184 l 1
 1081 1270 958 1302 833 1302 c 0
 526 1302 330 1043 330 722 c 0
 330 370 547 158 839 158 c 0
 974 158 1111 202 1247 306 c 1
 1318 135 l 1
 1171 25 1001 -22 827 -22 c 0
EndSplineSet
EndChar

StartChar: D
Encoding: 36 68 18
Width: 1543
VWidth: 0
Flags: W
AnchorPoint: "bottom" 676 0 basechar 0
AnchorPoint: "top" 700 1536 basechar 0
LayerCount: 2
Fore
SplineSet
408 180 m 1
 639 180 l 2
 1026 180 1213 390 1213 730 c 0
 1213 1108 1008 1276 573 1276 c 2
 408 1276 l 1
 408 180 l 1
196 0 m 1
 196 1456 l 1
 550 1456 l 2
 1107 1456 1438 1241 1438 730 c 0
 1438 269 1152 0 626 0 c 2
 196 0 l 1
EndSplineSet
EndChar

StartChar: E
Encoding: 37 69 21
Width: 1200
VWidth: 0
Flags: W
AnchorPoint: "ogonek" 850 0 basechar 0
AnchorPoint: "bottom" 826 0 basechar 0
AnchorPoint: "top" 656 1536 basechar 0
LayerCount: 2
Fore
SplineSet
196 0 m 1
 196 1456 l 1
 1084 1456 l 1
 1084 1276 l 1
 408 1276 l 1
 408 849 l 1
 1046 849 l 1
 1046 669 l 1
 409 669 l 1
 409 180 l 1
 1113 180 l 1
 1113 0 l 1
 196 0 l 1
EndSplineSet
EndChar

StartChar: Eng
Encoding: 264 330 30
Width: 1587
VWidth: 0
Flags: W
LayerCount: 2
Fore
SplineSet
586 -222 m 1
 710 -255 820 -275 912 -275 c 0
 1085 -275 1191 -204 1191 -14 c 2
 1191 69 l 1
 493 1021 l 1
 393 1174 l 1
 393 0 l 1
 190 0 l 1
 190 1456 l 1
 422 1456 l 1
 1089 526 l 1
 1192 373 l 1
 1192 1456 l 1
 1397 1456 l 1
 1397 70 l 2
 1397 -266 1241 -438 912 -438 c 0
 811 -438 694 -421 560 -389 c 1
 586 -222 l 1
EndSplineSet
EndChar

StartChar: Eth
Encoding: 142 208 32
Width: 1505
VWidth: 0
Flags: W
LayerCount: 2
Fore
SplineSet
18.2 806.7 m 1
 672.25 806.7 l 1
 672.25 676.25 l 1
 18.2 676.25 l 1
 18.2 806.7 l 1
EndSplineSet
Refer: 18 68 N 1 0 0 1 0 0 2
EndChar

StartChar: Euro
Encoding: 416 8364 33
Width: 1517
VWidth: 0
Flags: W
LayerCount: 2
Fore
SplineSet
116 499 m 1
 140 636 l 1
 265 636 l 1
 265 793 l 1
 112 793 l 1
 139 926 l 1
 1075 926 l 1
 1052 793 l 1
 465 793 l 1
 466 636 l 1
 1043 636 l 1
 1021 499 l 1
 116 499 l 1
EndSplineSet
Refer: 12 67 N 1 0 0 1 149 0 2
EndChar

StartChar: F
Encoding: 38 70 34
Width: 1123
VWidth: 0
Flags: W
AnchorPoint: "bottom" 676 0 basechar 0
AnchorPoint: "top" 700 1536 basechar 0
LayerCount: 2
Fore
SplineSet
196 0 m 1
 196 1456 l 1
 1052 1456 l 1
 1052 1276 l 1
 408 1276 l 1
 408 851 l 1
 1010 851 l 1
 1010 671 l 1
 408 671 l 1
 408 0 l 1
 196 0 l 1
EndSplineSet
EndChar

StartChar: G
Encoding: 39 71 35
Width: 1530
VWidth: 0
Flags: W
AnchorPoint: "bottom" 826 -20 basechar 0
AnchorPoint: "top" 830 1536 basechar 0
LayerCount: 2
Fore
SplineSet
847 -22 m 0
 362 -22 108 267 108 703 c 0
 108 1151 418 1482 866 1482 c 0
 1093 1482 1240 1418 1348 1337 c 1
 1263 1189 l 1
 1164 1258 1040 1302 871 1302 c 0
 542 1302 328 1046 328 714 c 0
 328 387 496 158 856 158 c 0
 954 158 1062 174 1150 205 c 1
 1150 593 l 1
 793 593 l 1
 793 775 l 1
 1364 775 l 1
 1364 85 l 1
 1192 7 1016 -22 847 -22 c 0
EndSplineSet
EndChar

StartChar: H
Encoding: 40 72 40
Width: 1559
VWidth: 0
Flags: W
HStem: 0 21G<196 410 1153 1363> 657 179<410 1151> 1436 20G<196 408 1151 1363>
VStem: 196 214<0 657 836 1456> 1153 210<0 657 836 1456>
AnchorPoint: "bottom" 788 0 basechar 0
AnchorPoint: "top" 793 1536 basechar 0
LayerCount: 2
UndoRedoHistory
Layer: 1
Undoes
EndUndoes
Redoes
EndRedoes
EndUndoRedoHistory
Fore
SplineSet
196 0 m 1
 196 1456 l 1
 408 1456 l 1
 408 836 l 5
 1151 836 l 5
 1151 1456 l 1
 1363 1456 l 1
 1363 0 l 1
 1153 0 l 1
 1153 657 l 5
 410 657 l 5
 410 0 l 1
 196 0 l 1
EndSplineSet
EndChar

StartChar: Hbar
Encoding: 228 294 41
Width: 1539
VWidth: 0
Flags: HW
LayerCount: 2
Fore
SplineSet
82 1145 m 1
 82 1266 l 1
 1458 1266 l 1
 1458 1145 l 1
 82 1145 l 1
EndSplineSet
Refer: 40 72 N 1 0 0 1 0 0 2
EndChar

StartChar: I
Encoding: 41 73 43
Width: 604
VWidth: 0
Flags: W
AnchorPoint: "bottom" 286 1 basechar 0
AnchorPoint: "top" 298 1536 basechar 0
LayerCount: 2
Fore
SplineSet
212 0 m 1
 212 1456 l 1
 424 1456 l 1
 424 0 l 1
 212 0 l 1
EndSplineSet
EndChar

StartChar: J
Encoding: 42 74 54
Width: 816
VWidth: 0
Flags: W
AnchorPoint: "top" 517 1516 basechar 0
LayerCount: 2
Fore
SplineSet
263 -330 m 0
 163 -330 62 -304 -9 -278 c 1
 24 -112 l 1
 80 -130 155 -150 231 -150 c 0
 375 -150 412 -55 412 117 c 2
 412 1456 l 1
 624 1456 l 1
 624 118 l 2
 624 -179 497 -330 263 -330 c 0
EndSplineSet
EndChar

StartChar: K
Encoding: 43 75 56
Width: 1311
VWidth: 0
Flags: W
AnchorPoint: "bottom" 726 0 basechar 0
AnchorPoint: "top" 667 1536 basechar 0
LayerCount: 2
Fore
SplineSet
196 0 m 1
 196 1456 l 1
 408 1456 l 1
 408 806 l 1
 1013 1456 l 1
 1277 1456 l 1
 618 754 l 1
 1325 0 l 1
 1054 0 l 1
 409 679 l 1
 409 0 l 1
 196 0 l 1
EndSplineSet
EndChar

StartChar: L
Encoding: 44 76 57
Width: 1124
VWidth: 0
Flags: W
AnchorPoint: "bottom" 696 0 basechar 0
AnchorPoint: "top" 580 1536 basechar 0
LayerCount: 2
Fore
SplineSet
196 0 m 1
 196 1456 l 1
 408 1456 l 1
 408 180 l 1
 1084 180 l 1
 1084 0 l 1
 196 0 l 1
EndSplineSet
EndChar

StartChar: Lslash
Encoding: 255 321 61
Width: 1142
VWidth: 0
Flags: W
LayerCount: 2
Fore
SplineSet
707 881 m 1
 48 456 l 1
 48 636 l 1
 707 1061 l 1
 707 881 l 1
EndSplineSet
Refer: 57 76 N 1 0 0 1 0 0 2
EndChar

StartChar: M
Encoding: 45 77 62
Width: 1941
VWidth: 0
Flags: W
AnchorPoint: "bottom" 976 0 basechar 0
AnchorPoint: "top" 970 1536 basechar 0
LayerCount: 2
Fore
SplineSet
196 0 m 1
 196 1456 l 1
 452 1456 l 1
 875 496 l 1
 972 274 l 1
 1070 501 l 1
 1491 1456 l 1
 1745 1456 l 1
 1745 0 l 1
 1544 0 l 1
 1544 1111 l 1
 1469 945 l 1
 1049 0 l 1
 893 0 l 1
 477 933 l 1
 401 1111 l 1
 401 0 l 1
 196 0 l 1
EndSplineSet
EndChar

StartChar: N
Encoding: 46 78 63
Width: 1605
VWidth: 0
Flags: W
AnchorPoint: "bottom" 804 0 basechar 0
AnchorPoint: "top" 809 1536 basechar 0
LayerCount: 2
Fore
SplineSet
196 0 m 1
 196 1456 l 1
 424 1456 l 1
 1105 456 l 1
 1208 292 l 1
 1208 1456 l 1
 1409 1456 l 1
 1409 0 l 1
 1181 0 l 1
 526 948 l 1
 394 1157 l 1
 394 0 l 1
 196 0 l 1
EndSplineSet
EndChar

StartChar: O
Encoding: 47 79 67
Width: 1640
VWidth: 0
Flags: W
AnchorPoint: "bottom" 826 -20 basechar 0
AnchorPoint: "top" 822 1536 basechar 0
LayerCount: 2
Fore
SplineSet
820 158 m 0
 1150 158 1302 384 1302 731 c 0
 1302 1062 1151 1302 823 1302 c 0
 499 1302 334 1061 334 731 c 0
 334 383 494 158 820 158 c 0
823 -22 m 0
 373 -22 106 272 106 731 c 0
 106 1173 371 1482 825 1482 c 0
 1263 1482 1534 1174 1534 731 c 0
 1534 274 1271 -22 823 -22 c 0
EndSplineSet
EndChar

StartChar: OE
Encoding: 272 338 68
Width: 2051
VWidth: 0
Flags: W
LayerCount: 2
Fore
SplineSet
809.5 -23.35 m 0
 395.4 -35.35 106.65 236 106.65 730.35 c 0
 106.65 1182.3 393.25 1479.75 790.1 1482.65 c 1
 987.5 1486.1 1087.75 1414.5 1113.75 1389.5 c 1
 1113.75 1456 l 1
 1933.05 1456 l 1
 1933.05 1273.7 l 1
 1326.5 1273.7 l 1
 1326.5 836.65 l 1
 1895.4 836.65 l 1
 1895.4 654 l 1
 1327.2 654 l 1
 1327.2 182.3 l 1
 1962.7 182.3 l 1
 1962.7 0 l 1
 1113.75 0 l 1
 1113.75 83.95 l 1
 1082 50.8 975.45 -19 809.5 -23.35 c 0
816.1 149.45 m 0
 996.95 151.4 1082.2 222.45 1113.75 258.2 c 1
 1113.75 1205.4 l 1
 1060.55 1255.5 962.1 1308.5 796.7 1300.35 c 1
 523.1 1290.15 335.15 1077.55 335.15 725 c 0
 335.15 376.4 509.9 145.55 816.1 149.45 c 0
EndSplineSet
EndChar

StartChar: Omega
Encoding: 374 937 76
Width: 1603
VWidth: 0
Flags: W
LayerCount: 2
Fore
SplineSet
91 0 m 1
 68 158 l 1
 386 158 l 1
 218 299 98 554 98 811 c 0
 98 1220 396 1482 795 1482 c 0
 1210 1482 1471 1189 1471 804 c 0
 1471 541 1330 291 1177 158 c 1
 1469 158 l 1
 1453 0 l 1
 908 0 l 1
 908 145 l 1
 1105 279 1250 534 1250 789 c 0
 1250 1067 1096 1302 792 1302 c 0
 514 1302 320 1098 320 793 c 0
 320 539 457 276 657 145 c 1
 657 0 l 1
 91 0 l 1
EndSplineSet
EndChar

StartChar: Oslash
Encoding: 150 216 77
Width: 1663
VWidth: 0
Flags: W
LayerCount: 2
Fore
SplineSet
438.9 -125.05 m 1
 338.3 -74.35 l 1
 1208.55 1564.2 l 1
 1309.15 1512.85 l 1
 438.9 -125.05 l 1
EndSplineSet
Refer: 67 79 N 1 0 0 1 0 0 2
EndChar

StartChar: P
Encoding: 48 80 79
Width: 1270
VWidth: 0
Flags: W
AnchorPoint: "bottom" 676 0 basechar 0
AnchorPoint: "top" 700 1536 basechar 0
LayerCount: 2
Fore
SplineSet
196 0 m 1
 196 1456 l 1
 612 1456 l 2
 954 1456 1203 1404 1203 1052 c 0
 1203 744 989 650 662 650 c 2
 408 650 l 1
 408 0 l 1
 196 0 l 1
408 830 m 1
 659 830 l 2
 860 830 985 872 985 1050 c 0
 985 1252 850 1276 618 1276 c 2
 408 1276 l 1
 408 830 l 1
EndSplineSet
EndChar

StartChar: Q
Encoding: 49 81 80
Width: 1639
VWidth: 0
Flags: W
LayerCount: 2
Fore
SplineSet
1236 -434 m 1
 1236 -434 1035 -249 918 -9 c 1
 1110 29 l 1
 1195 -146 1361 -301 1361 -301 c 1
 1236 -434 l 1
EndSplineSet
Refer: 67 79 N 1 0 0 1 0 0 2
EndChar

StartChar: R
Encoding: 50 82 81
Width: 1359
VWidth: 0
Flags: W
AnchorPoint: "bottom" 676 0 basechar 0
AnchorPoint: "top" 700 1536 basechar 0
LayerCount: 2
Fore
SplineSet
196 0 m 1
 196 1456 l 1
 670 1456 l 2
 939 1456 1175 1397 1175 1067 c 0
 1175 898 1093 766 895 719 c 1
 1003 678 1060 573 1113 442 c 2
 1290 0 l 1
 1060 0 l 1
 896 433 l 2
 835 594 793 641 638 641 c 2
 408 641 l 1
 408 0 l 1
 196 0 l 1
406 821 m 1
 656 821 l 2
 820 821 950 868 950 1053 c 0
 950 1234 861 1276 675 1276 c 2
 406 1276 l 1
 406 821 l 1
EndSplineSet
EndChar

StartChar: S
Encoding: 51 83 85
Width: 1235
VWidth: 0
Flags: W
AnchorPoint: "bottom" 612 -20 basechar 0
AnchorPoint: "top" 604 1536 basechar 0
LayerCount: 2
Fore
SplineSet
613 -22 m 0
 377 -22 189 79 126 142 c 1
 219 296 l 1
 286 243 447 158 604 158 c 0
 795 158 893 240 893 386 c 0
 893 525 846 581 549 668 c 0
 276 749 136 850 136 1094 c 0
 136 1353 354 1482 627 1482 c 0
 896 1482 1017 1397 1090 1325 c 1
 983 1182 l 1
 915 1246 794 1302 655 1302 c 0
 490 1302 362 1241 362 1102 c 0
 362 958 410 920 674 840 c 0
 1015 736 1116 623 1116 384 c 0
 1116 102 882 -22 613 -22 c 0
EndSplineSet
EndChar

StartChar: T
Encoding: 52 84 91
Width: 1156
VWidth: 0
Flags: W
AnchorPoint: "bottom" 580 1 basechar 0
AnchorPoint: "top" 580 1536 basechar 0
LayerCount: 2
Fore
SplineSet
470 0 m 1
 470 1276 l 1
 10 1276 l 1
 10 1456 l 1
 1146 1456 l 1
 1146 1276 l 1
 682 1276 l 1
 682 0 l 1
 470 0 l 1
EndSplineSet
EndChar

StartChar: Tbar
Encoding: 292 358 92
Width: 1156
VWidth: 0
Flags: W
LayerCount: 2
Fore
SplineSet
214 635 m 1
 214 782 l 1
 939 782 l 1
 939 635 l 1
 214 635 l 1
EndSplineSet
Refer: 91 84 N 1 0 0 1 0 0 2
EndChar

StartChar: Thorn
Encoding: 156 222 94
Width: 1286
VWidth: 0
Flags: W
LayerCount: 2
Fore
SplineSet
197 0 m 1
 197 1456 l 1
 408 1456 l 1
 408 1212 l 1
 606 1212 l 2
 947 1212 1210 1142 1210 776 c 0
 1210 467 960 344 642 344 c 2
 408 344 l 1
 408 0 l 1
 197 0 l 1
408 520 m 1
 653 520 l 2
 851 520 983 597 983 775 c 0
 983 987 848 1036 618 1036 c 2
 408 1036 l 1
 408 520 l 1
EndSplineSet
EndChar

StartChar: U
Encoding: 53 85 95
Width: 1498
VWidth: 0
Flags: W
AnchorPoint: "ogonek" 850 0 basechar 0
AnchorPoint: "bottom" 826 -20 basechar 0
AnchorPoint: "top" 756 1536 basechar 0
LayerCount: 2
Fore
SplineSet
747 -22 m 0
 297 -22 168 240 168 572 c 2
 168 1456 l 1
 380 1456 l 1
 380 568 l 2
 380 279 509 158 750 158 c 0
 981 158 1120 277 1120 564 c 2
 1120 1456 l 1
 1331 1456 l 1
 1331 574 l 2
 1331 231 1182 -22 747 -22 c 0
EndSplineSet
EndChar

StartChar: V
Encoding: 54 86 106
Width: 1340
VWidth: 0
Flags: W
LayerCount: 2
Fore
SplineSet
563 0 m 1
 14 1456 l 1
 252 1456 l 1
 601 469 l 1
 676 262 l 1
 750 469 l 1
 1103 1456 l 1
 1326 1456 l 1
 780 0 l 1
 563 0 l 1
EndSplineSet
EndChar

StartChar: W
Encoding: 55 87 107
Width: 2018
VWidth: 0
Flags: W
AnchorPoint: "bottom" 1017 0 basechar 0
AnchorPoint: "top" 1023 1536 basechar 0
LayerCount: 2
Fore
SplineSet
422 0 m 1
 18 1456 l 1
 246 1456 l 1
 489 511 l 1
 552 246 l 1
 624 506 l 1
 911 1456 l 1
 1122 1456 l 1
 1413 503 l 1
 1486 246 l 1
 1543 498 l 1
 1781 1456 l 1
 2000 1456 l 1
 1607 0 l 1
 1360 0 l 1
 1012 1169 l 1
 665 0 l 1
 422 0 l 1
EndSplineSet
EndChar

StartChar: X
Encoding: 56 88 112
Width: 1298
VWidth: 0
Flags: W
LayerCount: 2
Fore
SplineSet
1034 0 m 1
 650 570 l 1
 262 0 l 1
 14 0 l 1
 529 740 l 1
 38 1456 l 1
 297 1456 l 1
 660 917 l 1
 1030 1456 l 1
 1273 1456 l 1
 780 748 l 1
 1291 0 l 1
 1034 0 l 1
EndSplineSet
EndChar

StartChar: Y
Encoding: 57 89 113
Width: 1240
VWidth: 0
Flags: W
AnchorPoint: "bottom" 625 0 basechar 0
AnchorPoint: "top" 620 1536 basechar 0
LayerCount: 2
Fore
SplineSet
513 0 m 1
 513 571 l 1
 6 1456 l 1
 244 1456 l 1
 623 758 l 1
 1004 1456 l 1
 1244 1456 l 1
 725 574 l 1
 725 0 l 1
 513 0 l 1
EndSplineSet
EndChar

StartChar: Z
Encoding: 58 90 118
Width: 1185
VWidth: 0
Flags: W
AnchorPoint: "bottom" 676 0 basechar 0
AnchorPoint: "top" 700 1536 basechar 0
LayerCount: 2
Fore
SplineSet
88 0 m 1
 88 114 l 1
 809 1276 l 1
 117 1276 l 1
 117 1456 l 1
 1096 1456 l 1
 1096 1346 l 1
 368 180 l 1
 1092 180 l 1
 1092 0 l 1
 88 0 l 1
EndSplineSet
EndChar

StartChar: a
Encoding: 65 97 122
Width: 1281
VWidth: 0
Flags: W
AnchorPoint: "ogonek" 994 0 basechar 0
AnchorPoint: "bottom" 616 0 basechar 0
AnchorPoint: "top" 637 1152 basechar 0
LayerCount: 2
Fore
SplineSet
950 260 m 1
 919 92 778 -22 595 -22 c 0
 274 -22 105 233 105 510 c 0
 105 802 292 1052 594 1052 c 0
 788 1052 948 906 956 759 c 1
 920 749 l 1
 920 1026 l 1
 1123 1026 l 1
 1123 0 l 1
 918 0 l 1
 918 277 l 1
 950 260 l 1
624 885 m 0
 405 885 312 721 312 516 c 0
 312 314 405 145 627 145 c 0
 831 145 928 300 928 520 c 0
 928 724 831 885 624 885 c 0
EndSplineSet
EndChar

StartChar: acute
Encoding: 115 180 126
Width: 607
VWidth: 0
Flags: W
LayerCount: 2
Fore
SplineSet
61.25 1171.9 m 1
 306.6 1550.6 l 1
 571.25 1550.6 l 1
 240.15 1171.9 l 1
 61.25 1171.9 l 1
EndSplineSet
EndChar

StartChar: ae
Encoding: 164 230 128
Width: 1786
VWidth: 0
Flags: HW
LayerCount: 2
Fore
SplineSet
467 -25 m 0
 241 -25 83 90 83 288 c 0
 83 579 346 624 740 624 c 2
 775 624 l 1
 775 780 692 888 531 888 c 0
 417 888 287 839 217 806 c 1
 157 949 l 1
 181 964 340 1053 564 1053 c 0
 687 1053 840 989 896 858 c 1
 971 976 1090 1050 1236 1053 c 0
 1536 1058 1685 829 1685 522 c 0
 1685 509 1682 480 1682 480 c 1
 980 480 l 1
 980 455 l 1
 989 267 1079 153 1267 145 c 0
 1458 136 1599 254 1599 254 c 1
 1658 104 l 1
 1658 104 1513 -28 1261 -22 c 1
 1089 -19 946 71 875 213 c 1
 802 71 650 -25 467 -25 c 0
485 142 m 0
 696 142 774 315 776 480 c 1
 641 480 l 2
 460 480 287 440 287 297 c 0
 287 185 380 142 485 142 c 0
982 621 m 1
 1504 621 l 1
 1502 633 l 1
 1484 792 1389 889 1251 889 c 0
 1090 889 1006 766 982 621 c 1
EndSplineSet
EndChar

StartChar: ampersand
Encoding: 6 38 131
Width: 1552
VWidth: 0
Flags: W
LayerCount: 2
Fore
SplineSet
629 -25 m 0
 343 -25 124 138 124 415 c 0
 124 633 278 748 448 849 c 1
 354 953 288 1043 288 1172 c 0
 288 1372 443 1474 631 1474 c 0
 809 1474 987 1381 987 1178 c 0
 987 1024 861 900 721 813 c 1
 1060 442 l 1
 1137 575 1179 748 1179 916 c 1
 1369 881 l 1
 1365 677 1299 454 1192 297 c 1
 1266 221 1380 142 1505 109 c 1
 1370 -12 l 1
 1244 8 1147 93 1075 168 c 1
 968 60 822 -25 629 -25 c 0
628 154 m 0
 774 154 870 215 954 300 c 1
 563 719 l 1
 439 649 333 570 333 416 c 0
 333 263 454 154 628 154 c 0
601 933 m 1
 697 993 788 1071 788 1168 c 0
 788 1269 708 1307 639 1307 c 0
 554 1307 488 1261 488 1167 c 0
 488 1080 529 1005 601 933 c 1
EndSplineSet
EndChar

StartChar: approxequal
Encoding: 428 8776 133
Width: 1351
VWidth: 0
Flags: HW
LayerCount: 2
Fore
SplineSet
328 244 m 1
 171 286 l 1
 215 457 327 564 486 564 c 0
 579 564 668 520 747 477 c 1
 819 445 879 404 922 404 c 0
 991 404 1035 465 1073 569 c 1
 1225 531 l 1
 1185 365 1091 253 917 253 c 0
 836 253 753 288 648 350 c 1
 589 382 530 411 485 411 c 0
 405 411 355 346 328 244 c 1
329 657 m 1
 169 692 l 1
 207 863 321 971 484 971 c 0
 572 971 646 938 737 884 c 0
 818 837 880 812 921 812 c 0
 989 812 1035 871 1072 977 c 1
 1223 940 l 1
 1185 771 1087 662 916 662 c 0
 827 662 752 692 644 756 c 0
 583 792 529 821 481 821 c 0
 405 821 358 754 329 657 c 1
EndSplineSet
EndChar

StartChar: asciicircum
Encoding: 62 94 135
Width: 1605
VWidth: 0
Flags: W
LayerCount: 2
Fore
SplineSet
242 553 m 1
 734 1456 l 1
 864 1456 l 1
 1363 553 l 1
 1161 553 l 1
 797 1229 l 1
 448 553 l 1
 242 553 l 1
EndSplineSet
EndChar

StartChar: asciitilde
Encoding: 94 126 136
Width: 1336
VWidth: 0
Flags: W
LayerCount: 2
Fore
SplineSet
320 361 m 1
 165 435 l 1
 195 581 300 705 473 705 c 0
 556 705 657 661 744 623 c 1
 779 610 882 563 919 563 c 0
 991 563 1042 650 1063 741 c 1
 1232 689 l 1
 1194 519 1087 395 920 395 c 0
 857 395 773 430 691 468 c 1
 657 482 531 538 478 538 c 0
 390 538 343 455 320 361 c 1
EndSplineSet
EndChar

StartChar: asterisk
Encoding: 10 42 137
Width: 1092
VWidth: 0
Flags: W
LayerCount: 2
Fore
SplineSet
703 689 m 1
 539 947 l 1
 377 692 l 1
 224 794 l 1
 426 1030 l 1
 153 1125 l 1
 218 1279 l 1
 468 1157 l 1
 438 1456 l 1
 629 1456 l 1
 608 1157 l 1
 847 1279 l 1
 920 1125 l 1
 651 1030 l 1
 858 789 l 1
 703 689 l 1
EndSplineSet
EndChar

StartChar: at
Encoding: 32 64 138
Width: 1782
VWidth: 0
Flags: HW
LayerCount: 2
Fore
SplineSet
932 -93 m 0
 467 -93 107 202 107 676 c 0
 107 1174 494 1480 945 1480 c 0
 1357 1480 1676 1196 1676 796 c 0
 1676 513 1500 253 1300 253 c 0
 1165 253 1094 330 1094 460 c 1
 1053 352 945 263 803 263 c 0
 648 263 476 385 481 625 c 0
 487 918 724 1140 930 1140 c 0
 1030 1140 1116 1102 1145 1009 c 1
 1168 1115 l 1
 1344 1115 l 1
 1242 617 l 2
 1226 538 1219 496 1219 452 c 0
 1219 411 1238 366 1287 366 c 0
 1397 366 1535 557 1535 801 c 0
 1535 1146 1262 1342 949 1342 c 0
 587 1342 278 1110 278 675 c 0
 278 253 595 42 944 42 c 0
 1112 42 1294 90 1433 192 c 1
 1507 98 l 1
 1364 -31 1145 -93 932 -93 c 0
827 421 m 0
 976 421 1094 621 1094 823 c 0
 1094 924 1040 992 950 992 c 0
 788 992 676 769 676 592 c 0
 676 490 737 421 827 421 c 0
EndSplineSet
EndChar

StartChar: b
Encoding: 66 98 140
Width: 1279
VWidth: 0
Flags: W
AnchorPoint: "bottom" 826 0 basechar 0
AnchorPoint: "top" 686 1249 basechar 0
LayerCount: 2
Fore
SplineSet
707 -22 m 0
 540 -22 418 65 370 158 c 1
 370 0 l 1
 160 0 l 1
 164 124 167 240 167 271 c 2
 167 1478 l 1
 373 1478 l 1
 373 865 l 1
 411 945 522 1052 711 1052 c 0
 996 1052 1177 843 1177 528 c 0
 1177 192 974 -22 707 -22 c 0
677 145 m 0
 868 145 962 300 962 525 c 0
 962 731 859 885 676 885 c 0
 482 885 365 730 365 515 c 0
 365 299 479 145 677 145 c 0
EndSplineSet
EndChar

StartChar: backslash
Encoding: 60 92 141
Width: 845
VWidth: 0
Flags: W
LayerCount: 2
Fore
SplineSet
622 0 m 1
 32 1456 l 1
 217 1456 l 1
 813 0 l 1
 622 0 l 1
EndSplineSet
EndChar

StartChar: bar
Encoding: 92 124 142
Width: 766
VWidth: 0
Flags: W
LayerCount: 2
Fore
SplineSet
285 -473 m 1
 285 1526 l 1
 481 1526 l 1
 481 -473 l 1
 285 -473 l 1
EndSplineSet
EndChar

StartChar: braceleft
Encoding: 91 123 143
Width: 759
VWidth: 0
Flags: W
LayerCount: 2
Fore
SplineSet
688 -204 m 1
 423 -201 306 -86 306 116 c 2
 306 351 l 2
 306 489 256 565 132 572 c 1
 132 720 l 1
 242 725 304 796 305 920 c 1
 305 1154 l 2
 305 1349 401 1494 689 1494 c 1
 689 1334 l 1
 566 1332 515 1262 515 1123 c 2
 515 868 l 2
 515 747 432 674 340 641 c 1
 440 597 515 507 515 382 c 2
 515 135 l 2
 515 -16 591 -43 688 -44 c 1
 688 -204 l 1
EndSplineSet
EndChar

StartChar: braceright
Encoding: 93 125 144
Width: 772
VWidth: 0
Flags: W
LayerCount: 2
Fore
SplineSet
108 -204 m 1
 108 -43 l 1
 232 -42 283 30 283 168 c 2
 283 423 l 2
 283 544 366 617 457 650 c 1
 358 694 283 784 283 909 c 2
 283 1156 l 2
 283 1307 207 1334 110 1335 c 1
 110 1494 l 1
 375 1491 492 1377 492 1175 c 2
 492 940 l 2
 492 802 542 726 666 719 c 1
 666 571 l 1
 556 566 493 495 492 371 c 1
 492 137 l 2
 492 -58 396 -204 108 -204 c 1
EndSplineSet
EndChar

StartChar: bracketleft
Encoding: 59 91 145
Width: 646
VWidth: 0
Flags: W
LayerCount: 2
Fore
SplineSet
162 -203 m 1
 162 1482 l 1
 576 1482 l 1
 576 1327 l 1
 364 1327 l 1
 364 -48 l 1
 577 -48 l 1
 577 -203 l 1
 162 -203 l 1
EndSplineSet
EndChar

StartChar: bracketright
Encoding: 61 93 146
Width: 646
VWidth: 0
Flags: W
LayerCount: 2
Fore
SplineSet
111 -203 m 1
 111 -48 l 1
 319 -48 l 1
 319 1327 l 1
 110 1327 l 1
 110 1482 l 1
 522 1482 l 1
 522 -203 l 1
 111 -203 l 1
EndSplineSet
EndChar

StartChar: breve
Encoding: 365 728 147
Width: 643
VWidth: 0
Flags: W
AnchorPoint: "top" 327 1120 mark 0
LayerCount: 2
Fore
SplineSet
323.85 1184.55 m 0
 146.95 1184.55 44 1265.3 30.65 1456 c 1
 176.5 1456 l 1
 183.85 1354.9 245.35 1329.75 323.85 1329.75 c 0
 402.35 1329.75 458.55 1356.85 469.2 1456 c 1
 612.4 1456 l 1
 599.05 1266.6 497.5 1184.55 323.85 1184.55 c 0
EndSplineSet
EndChar

StartChar: brokenbar
Encoding: 101 166 148
Width: 500
VWidth: 0
Flags: W
LayerCount: 2
Fore
SplineSet
195 -473 m 1
 195 404 l 1
 372 404 l 1
 372 -473 l 1
 195 -473 l 1
194 621 m 1
 194 1526 l 1
 370 1526 l 1
 370 621 l 1
 194 621 l 1
EndSplineSet
EndChar

StartChar: bullet
Encoding: 409 8226 149
Width: 989
VWidth: 0
Flags: W
LayerCount: 2
Fore
SplineSet
503 372 m 0
 307 372 173 518 173 688 c 0
 173 862 317 1010 503 1010 c 0
 695 1010 837 860 837 688 c 0
 837 514 691 372 503 372 c 0
EndSplineSet
EndChar

StartChar: c
Encoding: 67 99 150
Width: 1047
VWidth: 0
Flags: W
AnchorPoint: "bottom" 599 0 basechar 0
AnchorPoint: "top" 597 1152 basechar 0
LayerCount: 2
Fore
SplineSet
627 -22 m 0
 303 -22 102 206 102 508 c 0
 102 828 312 1052 630 1052 c 0
 773 1052 893 1008 975 925 c 1
 902 790 l 1
 841 843 752 884 646 884 c 0
 457 884 315 759 315 509 c 0
 315 287 441 145 644 145 c 0
 765 145 859 196 915 238 c 1
 979 89 l 1
 880 16 769 -22 627 -22 c 0
EndSplineSet
EndChar

StartChar: caron
Encoding: 363 711 152
Width: 699
VWidth: 0
Flags: W
LayerCount: 2
Fore
SplineSet
263.1 1138.75 m 1
 7.3 1511.3 l 1
 191.9 1511.3 l 1
 347.9 1277.6 l 1
 503.95 1511.3 l 1
 692.05 1511.3 l 1
 436.95 1138.75 l 1
 263.1 1138.75 l 1
EndSplineSet
EndChar

StartChar: cedilla
Encoding: 118 184 157
Width: 529
VWidth: 0
Flags: W
AnchorPoint: "bottom" 228 -1 mark 0
LayerCount: 2
Fore
SplineSet
34.95 -420.95 m 1
 48.3 -315.25 l 1
 74.1 -325.2 148.35 -341.35 206.8 -341.35 c 0
 269.85 -341.35 316.1 -310.8 316.1 -263.9 c 0
 316.1 -227.7 285.95 -170.8 159.9 -170.8 c 2
 134.1 -170.8 l 1
 166.4 25.15 l 1
 271.75 25.15 l 1
 253.1 -99.4 l 1
 404.9 -114.8 487.7 -182.55 487.7 -268.9 c 0
 487.7 -378.7 375.2 -447.35 216 -447.35 c 0
 156.4 -447.35 72.35 -433.1 34.95 -420.95 c 1
EndSplineSet
EndChar

StartChar: cent
Encoding: 97 162 158
Width: 1044
VWidth: 0
Flags: W
LayerCount: 2
Fore
SplineSet
576.1 -222.35 m 1
 576.1 1250.65 l 1
 680.65 1250.65 l 1
 680.65 -222.35 l 1
 576.1 -222.35 l 1
EndSplineSet
Refer: 150 99 N 1 0 0 1 0 0 2
EndChar

StartChar: circumflex
Encoding: 362 710 159
Width: 699
VWidth: 0
Flags: HW
LayerCount: 2
Fore
SplineSet
254.7 1505.15 m 5
 442.55 1505.15 l 5
 686.6 1138.75 l 5
 506.9 1138.75 l 5
 348.6 1364.8 l 5
 188.95 1138.75 l 5
 12.75 1138.75 l 5
 254.7 1505.15 l 5
EndSplineSet
EndChar

StartChar: colon
Encoding: 26 58 160
Width: 556
VWidth: 0
Flags: W
LayerCount: 2
Fore
SplineSet
176 0 m 1
 176 240 l 1
 410 240 l 1
 410 0 l 1
 176 0 l 1
176 826 m 1
 176 1066 l 1
 410 1066 l 1
 410 826 l 1
 176 826 l 1
EndSplineSet
EndChar

StartChar: comma
Encoding: 12 44 161
Width: 506
VWidth: 0
Flags: W
AnchorPoint: "bottom" 300 346 mark 0
LayerCount: 2
Fore
SplineSet
65 -267 m 1
 175 237 l 1
 407 237 l 1
 236 -267 l 1
 65 -267 l 1
EndSplineSet
EndChar

StartChar: commaaccent
Encoding: 438 -1 162
Width: 540
VWidth: 0
Flags: W
AnchorPoint: "bottom" 288 0 mark 0
LayerCount: 2
Fore
SplineSet
98.55 -620.15 m 1
 208.6 -136.1 l 1
 441.45 -136.1 l 1
 269.3 -620.15 l 1
 98.55 -620.15 l 1
EndSplineSet
EndChar

StartChar: copyright
Encoding: 104 169 163
Width: 1723
VWidth: 0
Flags: HW
LayerCount: 2
Fore
SplineSet
447 719 m 0
 447 985 620 1170 884 1170 c 0
 1002 1170 1102 1133 1169 1065 c 1
 1109 953 l 1
 1058 997 984 1032 897 1032 c 0
 742 1032 623 927 623 720 c 0
 623 528 744 428 896 428 c 0
 986 428 1063 464 1120 509 c 1
 1174 389 l 1
 1085 322 988 291 883 291 c 0
 638 291 447 471 447 719 c 0
861 1482 m 0
 1277 1482 1617 1144 1617 729 c 0
 1617 314 1277 -22 861 -22 c 0
 446 -22 107 314 107 729 c 0
 107 1144 446 1482 861 1482 c 0
862 82 m 0
 1212 82 1493 375 1493 726 c 0
 1493 1078 1212 1378 862 1378 c 0
 510 1378 229 1078 229 726 c 0
 229 375 510 82 862 82 c 0
EndSplineSet
EndChar

StartChar: currency
Encoding: 99 164 164
Width: 1218
VWidth: 0
Flags: W
LayerCount: 2
Fore
SplineSet
1048 543.65 m 1
 862 729.65 l 1
 794 673.65 706 639.65 610 639.65 c 0
 514 639.65 426 673.65 358 730.65 c 1
 171 543.65 l 1
 120 594.65 l 1
 307 781.65 l 1
 252 847.65 219 931.65 219 1024.65 c 0
 219 1121.65 255 1209.65 314 1276.65 c 1
 119 1471.65 l 1
 170 1522.65 l 1
 367 1326.65 l 1
 433 1378.65 518 1409.65 610 1409.65 c 0
 702 1409.65 786 1378.65 853 1327.65 c 1
 1048 1522.65 l 1
 1099 1471.65 l 1
 906 1278.65 l 1
 966 1210.65 1002 1122.65 1002 1024.65 c 0
 1002 931.65 969 846.65 913 779.65 c 1
 1099 594.65 l 1
 1048 543.65 l 1
609 710.65 m 0
 783 710.65 911 848.95 911 1022.95 c 0
 911 1196.95 783 1331.65 609 1331.65 c 0
 435 1331.65 307 1196.95 307 1022.95 c 0
 307 848.95 435 710.65 609 710.65 c 0
EndSplineSet
EndChar

StartChar: d
Encoding: 68 100 165
Width: 1264
VWidth: 0
Flags: W
HStem: -22 167<452.995 760.432> 0 21G<898.62 1108> 885 167<460.345 761.619> 1458 20G<895 1101>
VStem: 102 214<297.712 724.581> 895 206<0 158 290.081 741.561 890 1478>
AnchorPoint: "bottom" 825 0 basechar 0
AnchorPoint: "top" 542 1208 basechar 0
LayerCount: 2
UndoRedoHistory
Layer: 0
Undoes
EndUndoes
Redoes
EndRedoes
EndUndoRedoHistory
UndoRedoHistory
Layer: 1
Undoes
EndUndoes
Redoes
EndRedoes
EndUndoRedoHistory
Fore
SplineSet
573 -22 m 0xbc
 304 -22 102 182 102 507 c 0
 102 819 277 1052 585 1052 c 0
 749 1052 859 964 895 890 c 1
 895 1478 l 1
 1101 1478 l 1
 1101 266 l 1
 1102 215 1103 157 1108 0 c 1
 899 0 l 1x7c
 896 158 l 1
 863 77 759 -22 573 -22 c 0xbc
606 145 m 0xbc
 802 145 900 299 900 522 c 0
 900 728 799 885 610 885 c 0
 420 885 316 729 316 512 c 0
 316 301 414 145 606 145 c 0xbc
EndSplineSet
EndChar

StartChar: dagger
Encoding: 407 8224 166
Width: 1022
VWidth: 0
Flags: W
LayerCount: 2
Fore
SplineSet
443 0 m 1
 443 882 l 1
 117 882 l 1
 117 1026 l 1
 443 1026 l 1
 443 1454 l 1
 613 1454 l 1
 613 1026 l 1
 949 1026 l 1
 949 882 l 1
 606 882 l 1
 606 0 l 1
 443 0 l 1
EndSplineSet
EndChar

StartChar: daggerdbl
Encoding: 408 8225 167
Width: 1114
VWidth: 0
Flags: W
LayerCount: 2
Fore
SplineSet
472 0 m 1
 472 398 l 1
 132 398 l 1
 132 517 l 1
 472 517 l 1
 472 901 l 1
 136 901 l 1
 136 1026 l 1
 472 1026 l 1
 472 1456 l 1
 650 1456 l 1
 650 1026 l 1
 984 1026 l 1
 984 901 l 1
 650 901 l 1
 650 517 l 1
 976 517 l 1
 976 398 l 1
 650 398 l 1
 650 0 l 1
 472 0 l 1
EndSplineSet
EndChar

StartChar: dcroat
Encoding: 207 273 169
Width: 1255
VWidth: 0
Flags: HW
LayerCount: 2
Fore
SplineSet
592 1220 m 1
 592 1346 l 1
 1206 1346 l 1
 1206 1220 l 1
 592 1220 l 1
EndSplineSet
Refer: 165 100 N 1 0 0 1 0 0 2
EndChar

StartChar: degree
Encoding: 111 176 170
Width: 864
VWidth: 0
Flags: HW
LayerCount: 2
Fore
SplineSet
432 1456 m 0
 605 1456 740 1322 740 1154 c 0
 740 987 604 853 432 853 c 0
 261 853 125 987 125 1154 c 0
 125 1322 261 1456 432 1456 c 0
432 974 m 0
 539 974 609 1055 609 1155 c 0
 609 1254 538 1334 432 1334 c 0
 327 1334 257 1254 257 1155 c 0
 257 1055 326 974 432 974 c 0
EndSplineSet
EndChar

StartChar: dieresis
Encoding: 103 168 171
Width: 743
VWidth: 0
Flags: W
AnchorPoint: "top" 359 1072 mark 0
LayerCount: 2
Fore
SplineSet
56.95 1174.95 m 1
 56.95 1383.9 l 1
 265.65 1383.9 l 1
 265.65 1174.95 l 1
 56.95 1174.95 l 1
476.65 1174.95 m 1
 476.65 1383.9 l 1
 685 1383.9 l 1
 685 1174.95 l 1
 476.65 1174.95 l 1
EndSplineSet
EndChar

StartChar: divide
Encoding: 181 247 172
Width: 1356
VWidth: 0
Flags: HW
LayerCount: 2
Fore
SplineSet
542 1 m 1
 542 242 l 1
 799 242 l 1
 799 1 l 1
 542 1 l 1
164 467 m 1
 164 639 l 1
 1169 639 l 1
 1169 467 l 1
 164 467 l 1
540 857 m 1
 540 1097 l 1
 797 1097 l 1
 797 857 l 1
 540 857 l 1
EndSplineSet
EndChar

StartChar: dollar
Encoding: 4 36 173
Width: 1210
VWidth: 0
Flags: W
LayerCount: 2
Fore
SplineSet
576 -205 m 1
 576 1630 l 1
 683 1630 l 1
 683 -205 l 1
 576 -205 l 1
EndSplineSet
Refer: 85 83 N 1 0 0 1 0 0 2
EndChar

StartChar: dotaccent
Encoding: 366 729 174
Width: 524
VWidth: 0
Flags: W
HStem: 1273 183<168 356>
VStem: 168 188<1273 1456>
AnchorPoint: "top" 255 1136 mark 0
LayerCount: 2
Fore
SplineSet
168 1273 m 1
 168 1456 l 1
 356 1456 l 1
 356 1273 l 1
 168 1273 l 1
EndSplineSet
EndChar

StartChar: dotlessi
Encoding: 239 305 175
Width: 548
VWidth: 0
Flags: W
AnchorPoint: "top" 259 1116 basechar 0
LayerCount: 2
Fore
SplineSet
174 0 m 1
 174 1026 l 1
 380 1026 l 1
 380 0 l 1
 174 0 l 1
EndSplineSet
EndChar

StartChar: e
Encoding: 69 101 176
Width: 1168
VWidth: 0
Flags: W
HStem: -22 167<473.94 860.99> 482 140<320 876> 890 162<458.05 763.228>
VStem: 102 213<304.998 482 622 737.171>
AnchorPoint: "ogonek" 864 56 basechar 0
AnchorPoint: "bottom" 651 0 basechar 0
AnchorPoint: "top" 603 1152 basechar 0
LayerCount: 2
UndoRedoHistory
Layer: 0
Undoes
EndUndoes
Redoes
EndRedoes
EndUndoRedoHistory
UndoRedoHistory
Layer: 1
Undoes
EndUndoes
Redoes
EndRedoes
EndUndoRedoHistory
Fore
SplineSet
638 -22 m 0
 307 -22 102 191 102 511 c 0
 102 818 300 1052 609 1052 c 0
 910 1052 1056 828 1056 529 c 0
 1056 523 1055 507 1052 482 c 1
 315 482 l 1
 321 256 460 145 651 145 c 0
 769 145 876 181 972 258 c 1
 1032 106 l 1
 921 20 790 -22 638 -22 c 0
320 622 m 1
 876 622 l 1
 857 799 756 890 616 890 c 0
 461 890 348 791 320 622 c 1
EndSplineSet
EndChar

StartChar: eight
Encoding: 24 56 184
Width: 1245
VWidth: 0
Flags: W
LayerCount: 2
Fore
SplineSet
629 -22 m 0
 363 -22 142 124 142 385 c 0
 142 559 253 695 428 763 c 1
 280 828 174 942 174 1106 c 0
 174 1343 370 1482 626 1482 c 0
 893 1482 1081 1340 1081 1101 c 0
 1081 937 979 822 829 762 c 1
 996 696 1113 552 1113 380 c 0
 1113 120 883 -22 629 -22 c 0
627 146 m 0
 789 146 905 225 905 386 c 0
 905 525 785 643 630 678 c 1
 472 644 352 533 352 384 c 0
 352 230 466 146 627 146 c 0
627 848 m 1
 780 885 875 982 875 1115 c 0
 875 1245 759 1316 627 1316 c 0
 491 1316 379 1248 379 1110 c 0
 379 981 474 883 627 848 c 1
EndSplineSet
EndChar

StartChar: ellipsis
Encoding: 410 8230 185
Width: 1620
VWidth: 0
Flags: W
LayerCount: 2
Fore
SplineSet
137.25 -11 m 1
 137.25 228.9 l 1
 395.7 228.9 l 1
 396.05 -11 l 1
 137.25 -11 l 1
667.75 -11 m 1
 667.75 228.9 l 1
 926.2 228.9 l 1
 927.2 -11 l 1
 667.75 -11 l 1
1198.25 -11 m 1
 1198.25 228.9 l 1
 1456 228.9 l 1
 1456 -11 l 1
 1198.25 -11 l 1
EndSplineSet
EndChar

StartChar: emdash
Encoding: 399 8212 187
Width: 2220
VWidth: 0
Flags: W
HStem: 477 157<86 2134>
LayerCount: 2
Fore
SplineSet
86 477 m 1
 86 634 l 1
 2134 634 l 1
 2134 477 l 1
 86 477 l 1
EndSplineSet
EndChar

StartChar: endash
Encoding: 398 8211 188
Width: 1196
VWidth: 0
Flags: W
HStem: 477 157<86 1110>
LayerCount: 2
Fore
SplineSet
86 477 m 1
 86 634 l 1
 1110 634 l 5
 1110 477 l 5
 86 477 l 1
EndSplineSet
EndChar

StartChar: eng
Encoding: 265 331 189
Width: 1220
VWidth: 0
Flags: W
LayerCount: 2
Fore
SplineSet
285 -219 m 1
 395 -246 488 -260 565 -260 c 0
 778 -260 869 -153 869 84 c 2
 869 566 l 2
 869 774 834 884 660 884 c 0
 514 884 376 755 375 634 c 1
 375 0 l 1
 169 0 l 1
 169 708 l 2
 169 891 156 1026 156 1026 c 1
 372 1026 l 1
 372 881 l 1
 441 995 575 1051 701 1051 c 0
 964 1051 1075 892 1075 567 c 2
 1075 124 l 2
 1075 -220 929 -413 589 -413 c 0
 495 -413 387 -398 263 -368 c 1
 285 -219 l 1
EndSplineSet
EndChar

StartChar: equal
Encoding: 29 61 191
Width: 1352
VWidth: 0
Flags: W
LayerCount: 2
Fore
SplineSet
187 282 m 1
 187 450 l 1
 1167 450 l 1
 1167 282 l 1
 187 282 l 1
186 678 m 1
 186 847 l 1
 1165 847 l 1
 1165 678 l 1
 186 678 l 1
EndSplineSet
EndChar

StartChar: eth
Encoding: 174 240 192
Width: 1220
VWidth: 0
Flags: HW
LayerCount: 2
Fore
SplineSet
591 -22 m 0
 291 -22 103 195 103 460 c 0
 103 724 311 908 589 908 c 0
 743 908 861 822 905 739 c 1
 905 747 903 765 900 778 c 1
 885 1045 605 1339 264 1416 c 1
 342 1553 l 1
 690 1481 1106 1143 1106 628 c 0
 1106 207 916 -22 591 -22 c 0
596 158 m 0
 769 158 880 286 880 473 c 0
 880 634 736 738 594 738 c 0
 436 738 317 635 317 457 c 0
 317 270 443 158 596 158 c 0
444 1046 m 1
 375 1156 l 1
 954 1515 l 1
 1023 1404 l 1
 444 1046 l 1
EndSplineSet
EndChar

StartChar: exclam
Encoding: 1 33 193
Width: 617
VWidth: 0
Flags: HW
LayerCount: 2
Fore
SplineSet
228 0 m 1
 228 235 l 1
 421 235 l 1
 421 0 l 1
 228 0 l 1
262 380 m 1
 201 1456 l 1
 444 1456 l 1
 383 380 l 1
 262 380 l 1
EndSplineSet
EndChar

StartChar: f
Encoding: 70 102 195
Width: 757
VWidth: 0
Flags: W
AnchorPoint: "bottom" 366 0 basechar 0
AnchorPoint: "top" 543 1464 basechar 0
LayerCount: 2
Fore
SplineSet
254 0 m 1
 254 889 l 1
 69 889 l 1
 69 1026 l 1
 254 1026 l 1
 254 1091 l 2
 254 1362 295 1482 661 1482 c 2
 711 1482 l 1
 706 1323 l 1
 478 1323 460 1285 460 1104 c 2
 460 1026 l 1
 700 1026 l 1
 700 889 l 1
 460 889 l 1
 460 0 l 1
 254 0 l 1
EndSplineSet
EndChar

StartChar: five
Encoding: 21 53 196
Width: 1244
VWidth: 0
Flags: W
LayerCount: 2
Fore
SplineSet
614 -23 m 0
 452 -23 286 31 164 157 c 1
 269 315 l 1
 367 203 494 159 610 159 c 0
 790 159 902 286 902 474 c 0
 902 628 818 764 660 764 c 0
 580 764 490 735 451 677 c 1
 247 694 l 1
 247 1456 l 1
 1040 1456 l 1
 1040 1274 l 1
 441 1274 l 1
 428 856 l 1
 488 924 589 952 687 952 c 0
 942 952 1120 743 1120 470 c 0
 1120 168 905 -23 614 -23 c 0
EndSplineSet
EndChar

StartChar: florin
Encoding: 318 402 197
Width: 1084
VWidth: 0
Flags: W
LayerCount: 2
Fore
SplineSet
96 -287 m 1
 111 -153 l 1
 135 -159 159 -163 183 -163 c 0
 258 -163 328 -120 358 51 c 2
 486 760 l 1
 338 760 l 1
 365 890 l 1
 509 890 l 1
 552 1120 l 2
 581 1278 642 1463 894 1463 c 0
 997 1463 1064 1425 1064 1425 c 1
 1047 1296 l 1
 1002 1309 962 1316 927 1316 c 0
 837 1316 778 1268 752 1137 c 2
 703 890 l 1
 909 890 l 1
 884 760 l 1
 677 760 l 1
 553 73 l 1
 508 -185 430 -304 202 -304 c 0
 187 -304 141 -300 96 -287 c 1
EndSplineSet
EndChar

StartChar: four
Encoding: 20 52 198
Width: 1244
VWidth: 0
Flags: W
LayerCount: 2
Fore
SplineSet
748 0 m 1
 748 384 l 1
 106 384 l 1
 106 522 l 1
 702 1456 l 1
 950 1456 l 1
 950 537 l 1
 1171 537 l 1
 1171 384 l 1
 950 384 l 1
 950 0 l 1
 748 0 l 1
326 537 m 1
 748 537 l 1
 748 1243 l 1
 618 1019 l 1
 326 537 l 1
EndSplineSet
EndChar

StartChar: fraction
Encoding: 414 8260 199
Width: 1092
VWidth: 0
Flags: W
LayerCount: 2
Fore
SplineSet
30 0 m 1
 925 1456 l 1
 1123 1456 l 1
 229 0 l 1
 30 0 l 1
EndSplineSet
EndChar

StartChar: g
Encoding: 71 103 200
Width: 1247
VWidth: 0
Flags: W
AnchorPoint: "bottom" 588 -512 basechar 0
AnchorPoint: "top" 580 1124 basechar 0
LayerCount: 2
Fore
SplineSet
603 181 m 0
 810 181 900 331 900 537 c 0
 900 744 799 885 615 885 c 0
 424 885 317 731 317 519 c 0
 317 304 417 181 603 181 c 0
927 243 m 1
 896 170 807 21 589 21 c 0
 311 21 103 206 103 516 c 0
 103 823 269 1052 584 1052 c 0
 794 1052 891 920 930 817 c 1
 894 797 l 1
 896 1026 l 1
 1110 1026 l 1
 1110 1026 1097 866 1097 728 c 2
 1097 147 l 2
 1097 -154 962 -412 576 -412 c 0
 436 -412 313 -383 189 -320 c 1
 222 -142 l 1
 343 -216 447 -247 567 -247 c 0
 773 -247 894 -140 894 78 c 2
 894 267 l 1
 927 243 l 1
EndSplineSet
EndChar

StartChar: gcedilla
Encoding: 225 291 202
Width: 1241
VWidth: 0
Flags: W
LayerCount: 2
Fore
SplineSet
480 1162 m 1
 643 1625 l 1
 774 1625 l 1
 667 1162 l 1
 480 1162 l 1
EndSplineSet
Refer: 200 103 N 1 0 0 1 0 0 2
EndChar

StartChar: germandbls
Encoding: 157 223 205
Width: 1254
VWidth: 0
Flags: W
LayerCount: 2
Fore
SplineSet
813 -23 m 0
 631 -23 486 37 486 37 c 1
 520 198 l 1
 520 198 671 132 797 143 c 0
 888 151 964 213 964 332 c 0
 964 510 815 621 561 738 c 1
 561 891 l 1
 727 960 806 1044 806 1166 c 0
 806 1268 726 1332 604 1332 c 0
 445 1332 362 1205 362 1019 c 2
 362 0 l 1
 160 0 l 1
 158 1017 l 2
 158 1328 329 1495 604 1495 c 0
 860 1495 1022 1366 1022 1174 c 0
 1022 1030 946 926 796 853 c 1
 778 843 742 828 722 822 c 1
 742 817 779 804 799 797 c 0
 998 719 1184 587 1184 347 c 0
 1184 120 1012 -23 813 -23 c 0
EndSplineSet
EndChar

StartChar: grave
Encoding: 64 96 206
Width: 600
VWidth: 0
Flags: W
LayerCount: 2
Fore
SplineSet
367 1173 m 1
 26 1552 l 1
 292 1552 l 1
 545 1173 l 1
 367 1173 l 1
EndSplineSet
EndChar

StartChar: greater
Encoding: 30 62 207
Width: 1309
VWidth: 0
Flags: W
LayerCount: 2
Fore
SplineSet
215 59 m 1
 215 252 l 1
 921 565 l 1
 220 901 l 1
 220 1091 l 1
 1192 609 l 1
 1192 503 l 1
 215 59 l 1
EndSplineSet
EndChar

StartChar: greaterequal
Encoding: 431 8805 208
Width: 1350
VWidth: 0
Flags: W
LayerCount: 2
Fore
SplineSet
158 0 m 1
 158 143 l 1
 1164 143 l 1
 1164 0 l 1
 158 0 l 1
171 1259 m 1
 1142 790 l 1
 1142 688 l 1
 167 229 l 1
 167 420 l 1
 878 740 l 1
 171 1071 l 1
 171 1259 l 1
EndSplineSet
EndChar

StartChar: guillemotleft
Encoding: 106 171 209
Width: 1137
VWidth: 0
Flags: W
LayerCount: 2
Fore
SplineSet
410 166 m 1
 137 542 l 1
 415 919 l 1
 590 919 l 1
 346 542 l 1
 582 166 l 1
 410 166 l 1
843 166 m 1
 570 542 l 1
 849 919 l 1
 1024 919 l 1
 779 542 l 1
 1016 166 l 1
 843 166 l 1
EndSplineSet
EndChar

StartChar: guillemotright
Encoding: 121 187 210
Width: 1137
VWidth: 0
Flags: W
LayerCount: 2
Fore
SplineSet
754 918 m 1
 1027 542 l 1
 748 165 l 1
 574 165 l 1
 818 542 l 1
 582 918 l 1
 754 918 l 1
321 918 m 1
 594 542 l 1
 315 165 l 1
 140 165 l 1
 384 542 l 1
 148 918 l 1
 321 918 l 1
EndSplineSet
EndChar

StartChar: guilsinglleft
Encoding: 412 8249 211
Width: 698
VWidth: 0
Flags: W
LayerCount: 2
Fore
SplineSet
410.75 164.55 m 1
 138 541 l 1
 416.75 917.75 l 1
 591.55 917.75 l 1
 347 540.65 l 1
 583.55 164.55 l 1
 410.75 164.55 l 1
EndSplineSet
EndChar

StartChar: guilsinglright
Encoding: 413 8250 212
Width: 698
VWidth: 0
Flags: W
LayerCount: 2
Fore
SplineSet
317 917 m 1
 590 541 l 1
 312 164 l 1
 137 164 l 1
 381 542 l 1
 145 917 l 1
 317 917 l 1
EndSplineSet
EndChar

StartChar: h
Encoding: 72 104 213
Width: 1232
VWidth: 0
Flags: W
AnchorPoint: "bottom" 645 0 basechar 0
AnchorPoint: "top" 737 1260 basechar 0
LayerCount: 2
Fore
SplineSet
158 0 m 1
 158 1478 l 1
 364 1478 l 1
 364 875 l 1
 423 983 567 1052 699 1052 c 0
 988 1052 1082 825 1082 603 c 2
 1082 0 l 1
 876 0 l 1
 876 603 l 2
 876 803 811 885 667 885 c 0
 512 885 364 760 364 621 c 2
 364 0 l 1
 158 0 l 1
EndSplineSet
EndChar

StartChar: hbar
Encoding: 229 295 214
Width: 1198
VWidth: 0
Flags: W
LayerCount: 2
Fore
SplineSet
-16 1190 m 1
 -16 1323 l 1
 582 1323 l 1
 582 1190 l 1
 -16 1190 l 1
EndSplineSet
Refer: 213 104 N 1 0 0 1 0 0 2
EndChar

StartChar: hungarumlaut
Encoding: 370 733 216
Width: 969
VWidth: 0
Flags: W
AnchorPoint: "top" 336 1090 mark 0
LayerCount: 2
Fore
SplineSet
64.75 1156.85 m 1
 282.3 1550.6 l 1
 504.8 1550.6 l 1
 212.65 1156.85 l 1
 64.75 1156.85 l 1
405.15 1156.85 m 1
 658.4 1550.6 l 1
 890.4 1550.6 l 1
 558.1 1156.85 l 1
 405.15 1156.85 l 1
EndSplineSet
EndChar

StartChar: hyphen
Encoding: 13 45 217
Width: 699
VWidth: 0
Flags: W
HStem: 477 161<60 640>
VStem: 60 580<477 638>
LayerCount: 2
Fore
SplineSet
60 477 m 1
 60 638 l 5
 640 638 l 5
 640 477 l 1
 60 477 l 1
EndSplineSet
EndChar

StartChar: i
Encoding: 73 105 218
Width: 556
VWidth: 0
Flags: W
AnchorPoint: "bottom" 248 1 basechar 0
LayerCount: 2
Fore
SplineSet
182 0 m 1
 182 1026 l 1
 386 1026 l 1
 386 0 l 1
 182 0 l 1
184 1270 m 1
 184 1456 l 1
 386 1456 l 1
 386 1270 l 1
 184 1270 l 1
EndSplineSet
EndChar

StartChar: infinity
Encoding: 426 8734 226
Width: 1732
VWidth: 0
Flags: W
LayerCount: 2
Fore
SplineSet
463.4 233.95 m 0
 245.35 233.95 96 410.7 96 618.8 c 0
 96 807.55 267.35 958.95 458.4 958.95 c 0
 622.75 958.95 751.45 861 868.8 705.25 c 1
 980.15 857 1102.15 958.95 1271.85 958.95 c 0
 1492.55 958.95 1633.9 808.55 1633.9 600.45 c 0
 1633.9 382.7 1464.55 233.95 1269.85 233.95 c 0
 1120.5 233.95 1000.15 314.9 866.8 486.65 c 1
 751.45 336.25 624.75 233.95 463.4 233.95 c 0
473.2 369.95 m 0
 600.15 369.95 705.8 470.9 795.75 594.45 c 1
 705.8 724 600.15 824.25 463.2 824.25 c 0
 322.25 824.25 245.7 720.35 245.7 597.1 c 0
 245.7 481.55 332.25 369.95 473.2 369.95 c 0
1271.5 369.95 m 0
 1419.45 369.95 1480.65 481.2 1480.65 622.75 c 0
 1480.65 731.65 1396.45 824.25 1266.5 824.25 c 0
 1137.55 824.25 1024.25 714.35 942.6 597.1 c 1
 1059.9 448.9 1150.55 369.95 1271.5 369.95 c 0
EndSplineSet
EndChar

StartChar: integral
Encoding: 427 8747 227
Width: 772
VWidth: 0
Flags: W
LayerCount: 2
Fore
SplineSet
200 -311 m 0
 104 -311 46 -288 46 -288 c 1
 46 -129 l 1
 46 -129 135 -145 192 -145 c 0
 303 -145 323 -78 323 47 c 2
 323 1179 l 2
 323 1397 383 1559 611 1559 c 0
 701 1559 763 1536 763 1536 c 1
 763 1374 l 1
 763 1374 701 1393 644 1393 c 0
 531 1393 510 1326 510 1201 c 2
 510 69 l 2
 510 -150 429 -311 200 -311 c 0
EndSplineSet
EndChar

StartChar: j
Encoding: 74 106 230
Width: 575
VWidth: 0
Flags: HW
AnchorPoint: "bottom" 676 0 basechar 0
AnchorPoint: "top" 700 1536 basechar 0
LayerCount: 2
Fore
SplineSet
86 -391 m 0
 7 -391 -62 -374 -83 -369 c 1
 -65 -219 l 1
 -65 -219 -3 -237 62 -237 c 0
 173 -237 210 -183 210 12 c 2
 210 1026 l 1
 416 1026 l 1
 416 5 l 2
 416 -257 339 -391 86 -391 c 0
210 1270 m 1
 210 1456 l 1
 416 1456 l 1
 416 1270 l 1
 210 1270 l 1
EndSplineSet
EndChar

StartChar: k
Encoding: 75 107 232
Width: 1080
VWidth: 0
Flags: W
AnchorPoint: "bottom" 616 -1 basechar 0
AnchorPoint: "top" 767 1152 basechar 0
LayerCount: 2
Fore
SplineSet
160 0 m 1
 160 1478 l 1
 366 1478 l 1
 366 597 l 1
 785 1026 l 1
 1068 1026 l 1
 558 536 l 1
 1103 0 l 1
 829 0 l 1
 366 473 l 1
 366 0 l 1
 160 0 l 1
EndSplineSet
EndChar

StartChar: kgreenlandic
Encoding: 246 312 234
Width: 1082
VWidth: 0
Flags: W
LayerCount: 2
Fore
SplineSet
162 0 m 1
 162 1026 l 1
 367 1026 l 1
 367 582 l 1
 778 1026 l 1
 1048 1026 l 1
 538 518 l 1
 1084 0 l 1
 822 0 l 1
 367 440 l 1
 367 0 l 1
 162 0 l 1
EndSplineSet
EndChar

StartChar: l
Encoding: 76 108 235
Width: 532
VWidth: 0
Flags: W
AnchorPoint: "bottom" 264 0 basechar 0
AnchorPoint: "top" 266 1474 basechar 0
LayerCount: 2
Fore
SplineSet
168 0 m 1
 168 1478 l 1
 374 1478 l 1
 374 0 l 1
 168 0 l 1
EndSplineSet
EndChar

StartChar: less
Encoding: 28 60 239
Width: 1308
VWidth: 0
Flags: W
LayerCount: 2
Fore
SplineSet
1091 57 m 1
 120 526 l 1
 120 628 l 1
 1095 1086 l 1
 1095 896 l 1
 384 576 l 1
 1091 245 l 1
 1091 57 l 1
EndSplineSet
EndChar

StartChar: lessequal
Encoding: 430 8804 240
Width: 1350
VWidth: 0
Flags: W
LayerCount: 2
Fore
SplineSet
1132 230 m 1
 161 698 l 1
 161 800 l 1
 1137 1259 l 1
 1137 1069 l 1
 425 748 l 1
 1132 417 l 1
 1132 230 l 1
146 0 m 1
 146 143 l 1
 1152 143 l 1
 1152 0 l 1
 146 0 l 1
EndSplineSet
EndChar

StartChar: logicalnot
Encoding: 107 172 241
Width: 1461
VWidth: 0
Flags: W
LayerCount: 2
Fore
SplineSet
1051.3 229.5 m 1
 1051.3 634.2 l 1
 185.25 634.2 l 1
 185.25 806.15 l 1
 1242.4 806.15 l 1
 1242.4 229.5 l 1
 1051.3 229.5 l 1
EndSplineSet
EndChar

StartChar: lozenge
Encoding: 432 9674 243
Width: 1248
VWidth: 0
Flags: W
LayerCount: 2
Fore
SplineSet
604 163 m 1
 928 707 l 1
 612 1242 l 1
 288 707 l 1
 604 163 l 1
537 -40 m 1
 92 707 l 1
 544 1456 l 1
 678 1456 l 1
 1126 708 l 1
 670 -40 l 1
 537 -40 l 1
EndSplineSet
EndChar

StartChar: lslash
Encoding: 256 322 244
Width: 503
VWidth: 0
Flags: W
LayerCount: 2
Fore
SplineSet
143.2 0 m 1
 143.2 707.35 l 1
 3.4 607.35 l 1
 3.4 785.1 l 1
 142.85 885.1 l 1
 142.85 1475.35 l 1
 349.3 1475.35 l 1
 349.3 1025.9 l 1
 486 1124.85 l 1
 486 946.05 l 1
 349.65 845.4 l 1
 349.65 0 l 1
 143.2 0 l 1
EndSplineSet
EndChar

StartChar: m
Encoding: 77 109 245
Width: 1864
VWidth: 0
Flags: W
AnchorPoint: "bottom" 946 0 basechar 0
AnchorPoint: "top" 952 1024 basechar 0
LayerCount: 2
Fore
SplineSet
170 0 m 1
 170 728 l 2
 170 859 162 952 158 1026 c 1
 374 1026 l 1
 374 870 l 1
 427 984 560 1052 689 1052 c 0
 825 1052 943 976 996 840 c 1
 1071 966 1195 1052 1356 1052 c 0
 1595 1052 1714 889 1714 630 c 2
 1714 0 l 1
 1508 0 l 1
 1508 611 l 2
 1508 771 1461 885 1335 885 c 0
 1183 885 1048 746 1048 584 c 2
 1048 0 l 1
 842 0 l 1
 842 631 l 2
 842 763 797 885 654 885 c 0
 496 885 377 752 377 612 c 2
 377 0 l 1
 170 0 l 1
EndSplineSet
EndChar

StartChar: macron
Encoding: 110 175 246
Width: 732
VWidth: 0
Flags: W
AnchorPoint: "top" 373 1136 mark 0
LayerCount: 2
Fore
SplineSet
67.3 1234.3 m 1
 67.3 1389.7 l 1
 664.8 1389.7 l 1
 664.8 1234.3 l 1
 67.3 1234.3 l 1
EndSplineSet
EndChar

StartChar: middot
Encoding: -1 183 247
Width: 509
VWidth: 0
Flags: W
LayerCount: 2
Fore
SplineSet
146 513 m 1
 146 723 l 1
 363 723 l 1
 363 513 l 1
 146 513 l 1
EndSplineSet
EndChar

StartChar: minus
Encoding: 422 8722 248
Width: 1356
VWidth: 0
Flags: W
LayerCount: 2
Fore
SplineSet
183 391.7 m 1
 183 560.3 l 1
 1174.25 560.3 l 1
 1174.25 391.7 l 1
 183 391.7 l 1
EndSplineSet
EndChar

StartChar: multiply
Encoding: 149 215 249
Width: 1244
VWidth: 0
Flags: W
LayerCount: 2
Fore
SplineSet
351 136 m 1
 219 267 l 1
 502 551 l 1
 219 833 l 1
 351 966 l 1
 634 682 l 1
 917 966 l 1
 1049 834 l 1
 765 551 l 1
 1049 268 l 1
 917 136 l 1
 634 418 l 1
 351 136 l 1
EndSplineSet
EndChar

StartChar: n
Encoding: 78 110 250
Width: 1241
VWidth: 0
Flags: W
AnchorPoint: "bottom" 676 0 basechar 0
AnchorPoint: "top" 697 1152 basechar 0
LayerCount: 2
Fore
SplineSet
171 0 m 1
 171 708 l 2
 171 891 158 1026 158 1026 c 1
 374 1026 l 1
 374 876 l 1
 446 989 584 1052 710 1052 c 0
 973 1052 1091 892 1091 567 c 2
 1091 0 l 1
 885 0 l 1
 885 566 l 2
 885 774 843 885 670 885 c 0
 524 885 378 755 377 634 c 1
 377 0 l 1
 171 0 l 1
EndSplineSet
EndChar

StartChar: nine
Encoding: 25 57 254
Width: 1244
VWidth: 0
Flags: W
LayerCount: 2
Fore
SplineSet
566 -22 m 0
 453 -22 336 3 203 70 c 1
 274 240 l 1
 371 183 461 158 550 158 c 0
 751 158 897 313 897 643 c 2
 897 689 l 1
 831 575 717 531 582 531 c 0
 303 531 133 723 133 998 c 0
 133 1272 315 1482 616 1482 c 0
 938 1482 1108 1236 1108 772 c 0
 1108 253 894 -22 566 -22 c 0
348 1003 m 0
 348 836 424 707 607 707 c 0
 771 707 888 813 888 1003 c 0
 888 1158 796 1302 617 1302 c 0
 448 1302 348 1176 348 1003 c 0
EndSplineSet
EndChar

StartChar: notequal
Encoding: 429 8800 255
Width: 1369
VWidth: 0
Flags: W
LayerCount: 2
Fore
SplineSet
495 41 m 1
 337 65 l 1
 457 313 l 1
 172 313 l 1
 172 466 l 1
 535 466 l 1
 657 701 l 1
 172 701 l 1
 172 855 l 1
 731 855 l 1
 862 1123 l 1
 1025 1099 l 1
 904 855 l 1
 1217 855 l 1
 1217 701 l 1
 831 701 l 1
 706 466 l 1
 1217 466 l 1
 1217 313 l 1
 630 313 l 1
 495 41 l 1
EndSplineSet
EndChar

StartChar: numbersign
Encoding: 3 35 257
Width: 1276
VWidth: 0
Flags: W
LayerCount: 2
Fore
SplineSet
223 25 m 1
 310 467 l 1
 65 467 l 1
 76 609 l 1
 337 609 l 1
 388 878 l 1
 124 878 l 1
 136 1020 l 1
 416 1020 l 1
 497 1441 l 1
 664 1441 l 1
 582 1020 l 1
 808 1020 l 1
 888 1441 l 1
 1055 1441 l 1
 973 1020 l 1
 1204 1020 l 1
 1194 878 l 1
 946 878 l 1
 894 609 l 1
 1146 609 l 1
 1135 467 l 1
 867 467 l 1
 780 25 l 1
 615 25 l 1
 700 467 l 1
 475 467 l 1
 389 25 l 1
 223 25 l 1
501 609 m 1
 728 609 l 1
 780 878 l 1
 555 878 l 1
 501 609 l 1
EndSplineSet
EndChar

StartChar: o
Encoding: 79 111 258
Width: 1265
VWidth: 0
Flags: W
AnchorPoint: "ogonek" 726 0 basechar 0
AnchorPoint: "bottom" 826 0 basechar 0
AnchorPoint: "top" 619 1152 basechar 0
LayerCount: 2
Fore
SplineSet
635 145 m 0
 847 145 947 301 947 513 c 0
 947 729 843 885 634 885 c 0
 423 885 318 729 318 512 c 0
 318 301 420 145 635 145 c 0
635 -22 m 0
 290 -22 102 206 102 512 c 0
 102 825 294 1052 637 1052 c 0
 981 1052 1163 825 1163 512 c 0
 1163 207 976 -22 635 -22 c 0
EndSplineSet
EndChar

StartChar: oe
Encoding: 273 339 263
Width: 1985
VWidth: 0
Flags: W
LayerCount: 2
Fore
SplineSet
1125.75 624.3 m 1
 1668.4 624.3 l 1
 1668.4 628.2 1668.4 634.75 1667.75 638.65 c 0
 1650.75 778.75 1552.5 885.05 1406.35 885.05 c 0
 1251.9 885.05 1145.25 760.15 1125.75 624.3 c 1
631.2 144.6 m 0
 831.05 144.6 918.85 315.65 918.85 511 c 0
 918.85 722.65 832.1 885.05 623.55 885.05 c 0
 420.65 885.05 312.85 719 312.2 507.35 c 0
 311.55 309 410.35 144.6 631.2 144.6 c 0
626.25 -22 m 0
 288.3 -22 96.75 206.9 96.75 510.35 c 0
 96.75 811.1 281.5 1052 626.1 1052 c 0
 818.7 1052 947.35 965.15 1023.6 838.3 c 1
 1100 972.95 1218.4 1053.7 1404.8 1053.7 c 0
 1698.8 1053.7 1861.6 834.65 1861.6 516.35 c 2
 1861.6 462.45 l 1
 1124.4 462.45 l 1
 1124.75 458.7 1125.4 433.7 1125.75 430.3 c 0
 1140.25 260.1 1262.85 144.6 1455.05 144.6 c 0
 1655.2 144.6 1774.35 250.35 1774.35 250.35 c 1
 1834.5 98.5 l 1
 1834.5 98.5 1702.65 -22 1433.25 -22 c 0
 1263.45 -22 1092.1 62.45 1022 197.3 c 1
 956 61.2 796.95 -22 626.25 -22 c 0
EndSplineSet
EndChar

StartChar: ogonek
Encoding: 368 731 264
Width: 508
VWidth: 0
Flags: W
AnchorPoint: "ogonek" 308 0 mark 0
LayerCount: 2
Fore
SplineSet
35.1 -253.85 m 0
 35.1 -129.1 172.35 -29.1 264.7 16.75 c 1
 375.8 11.55 l 1
 288.4521 -44.74974 208.64595 -149.18435 208.64595 -220.1295 c 0
 208.64595 -266.83095 243.08145 -294.57295 317.83495 -294.57295 c 0
 367.2211 -294.57295 426.60965 -280.24955 465.75 -269.45 c 1
 465.75 -385.7 l 1
 402.3907 -406.42365 332.32865 -418.4171 267.9954 -418.4171 c 0
 142.27425 -418.4171 35.1 -369.60705 35.1 -253.85 c 0
EndSplineSet
EndChar

StartChar: one
Encoding: 17 49 268
Width: 1244
VWidth: 0
Flags: W
LayerCount: 2
Fore
SplineSet
286 0 m 1
 286 166 l 1
 564 166 l 1
 564 1232 l 1
 485 1191 377 1147 269 1109 c 1
 269 1301 l 1
 373 1337 512 1404 601 1456 c 1
 776 1456 l 1
 776 166 l 1
 1039 166 l 1
 1039 0 l 1
 286 0 l 1
EndSplineSet
EndChar

StartChar: onehalf
Encoding: 123 189 269
Width: 2266
VWidth: 0
Flags: HW
LayerCount: 2
Fore
SplineSet
232 626 m 1
 232 752 l 1
 401 752 l 1
 401 1303 l 1
 213 1242 l 1
 213 1371 l 1
 243 1380 410 1444 430 1456 c 1
 560 1456 l 1
 560 750 l 1
 713 750 l 1
 713 626 l 1
 232 626 l 1
700 764 m 1
 700 626 l 1
 700 764 l 1
1374 0 m 1
 1374 140 l 1
 1675 393 1782 505 1782 599 c 0
 1782 664 1733 702 1659 702 c 0
 1584 702 1504 659 1444 598 c 1
 1371 716 l 1
 1445 797 1556 844 1669 844 c 0
 1824 844 1951 761 1951 601 c 0
 1951 435 1772 285 1589 138 c 1
 1944 138 l 1
 1944 0 l 1
 1374 0 l 1
509 0 m 1
 1404 1456 l 1
 1585 1456 l 1
 691 0 l 1
 509 0 l 1
EndSplineSet
EndChar

StartChar: onequarter
Encoding: 122 188 270
Width: 2048
VWidth: 0
Flags: W
LayerCount: 2
Fore
SplineSet
1584 0 m 1
 1584 191 l 1
 1211 191 l 1
 1211 293 l 1
 1578 804 l 1
 1736 804 l 1
 1736 311 l 1
 1853 311 l 1
 1853 191 l 1
 1735 191 l 1
 1735 0 l 1
 1584 0 l 1
1354 311 m 1
 1582 311 l 1
 1582 629 l 1
 1354 311 l 1
535 0 m 1
 1430 1456 l 1
 1611 1456 l 1
 717 0 l 1
 535 0 l 1
232 626 m 1
 232 752 l 1
 401 752 l 1
 401 1303 l 1
 213 1242 l 1
 213 1371 l 1
 243 1380 410 1444 430 1456 c 1
 560 1456 l 1
 560 750 l 1
 713 750 l 1
 713 626 l 1
 232 626 l 1
EndSplineSet
EndChar

StartChar: ordfeminine
Encoding: 105 170 271
Width: 816
VWidth: 0
Flags: HW
LayerCount: 2
Fore
SplineSet
338 750 m 0
 205 750 96 826 96 961 c 0
 96 1093 187 1172 372 1172 c 2
 548 1172 l 1
 548 1214 l 2
 548 1318 500 1357 410 1357 c 0
 296 1357 179 1304 179 1304 c 1
 131 1414 l 1
 131 1414 252 1482 424 1482 c 0
 579 1482 712 1413 712 1215 c 0
 712 1134 712 951 712 916 c 0
 713 853 716 827 720 776 c 1
 566 776 l 1
 555 872 l 1
 527 811 452 750 338 750 c 0
353 864 m 0
 456 864 547 935 547 1057 c 2
 547 1057 547 1076 547 1077 c 1
 329 1077 244 1075 244 964 c 0
 244 899 292 864 353 864 c 0
EndSplineSet
EndChar

StartChar: ordmasculine
Encoding: 120 186 272
Width: 894
VWidth: 0
Flags: W
LayerCount: 2
Fore
SplineSet
451 876 m 0
 575 876 655 962 655 1094 c 0
 655 1233 575 1318 450 1318 c 0
 327 1318 245 1232 245 1098 c 0
 245 959 320 876 451 876 c 0
452 738 m 0
 205 738 77 896 77 1100 c 0
 77 1300 213 1457 450 1457 c 0
 689 1457 820 1297 820 1096 c 0
 820 900 689 738 452 738 c 0
EndSplineSet
EndChar

StartChar: oslash
Encoding: 182 248 273
Width: 1259
VWidth: 0
Flags: W
LayerCount: 2
Fore
SplineSet
353.95 -209.65 m 1
 256.25 -167.9 l 1
 890.6 1221.55 l 1
 988.95 1179.15 l 1
 353.95 -209.65 l 1
EndSplineSet
Refer: 258 111 N 1 0 0 1 0 0 2
EndChar

StartChar: p
Encoding: 80 112 275
Width: 1261
VWidth: 0
Flags: W
AnchorPoint: "bottom" 826 0 basechar 0
AnchorPoint: "top" 673 1014 basechar 0
LayerCount: 2
Fore
SplineSet
169 -412 m 1
 169 720 l 2
 169 802 162 922 156 1026 c 1
 373 1026 l 1
 373 858 l 1
 405 954 541 1052 702 1052 c 0
 984 1052 1159 826 1159 526 c 0
 1159 219 982 -22 697 -22 c 0
 530 -22 401 75 373 155 c 1
 373 -412 l 1
 169 -412 l 1
658 145 m 0
 848 145 944 303 944 518 c 0
 944 731 846 885 660 885 c 0
 469 885 366 727 366 506 c 0
 366 298 465 145 658 145 c 0
EndSplineSet
EndChar

StartChar: paragraph
Encoding: 116 182 276
Width: 1215
VWidth: 0
Flags: W
LayerCount: 2
Fore
SplineSet
472 -179 m 1
 472 806 l 1
 274 815 123 929 123 1132 c 0
 123 1388 317 1456 595 1456 c 2
 1060 1456 l 1
 1060 1298 l 1
 953 1298 l 1
 953 -179 l 1
 802 -179 l 1
 802 1298 l 1
 624 1298 l 1
 624 -179 l 1
 472 -179 l 1
EndSplineSet
EndChar

StartChar: parenleft
Encoding: 8 40 277
Width: 653
VWidth: 0
Flags: W
LayerCount: 2
Fore
SplineSet
410 -172 m 1
 252 68 131 367 131 664 c 0
 131 975 238 1252 404 1516 c 1
 604 1516 l 1
 434 1248 337 954 337 664 c 0
 337 395 445 82 604 -172 c 1
 410 -172 l 1
EndSplineSet
EndChar

StartChar: parenright
Encoding: 9 41 278
Width: 653
VWidth: 0
Flags: W
LayerCount: 2
Fore
SplineSet
244 1496 m 1
 402 1256 522 957 522 660 c 0
 522 349 416 71 250 -192 c 1
 50 -192 l 1
 220 76 317 370 317 660 c 0
 317 929 209 1241 50 1496 c 1
 244 1496 l 1
EndSplineSet
EndChar

StartChar: partialdiff
Encoding: 418 8706 279
Width: 1162
VWidth: 0
Flags: HW
LayerCount: 2
Fore
SplineSet
485 -24 m 0
 208 -24 65 171 65 424 c 0
 65 748 296 1002 579 1002 c 0
 728 1002 825 918 855 851 c 1
 855 855 855 937 854 941 c 0
 848 1193 733 1349 555 1349 c 0
 435 1349 329 1301 267 1263 c 1
 254 1417 l 1
 338 1475 456 1515 574 1515 c 0
 880 1515 1068 1306 1068 838 c 0
 1068 412 877 -24 485 -24 c 0
486 144 m 0
 676 144 795 318 838 650 c 1
 801 747 711 838 596 838 c 0
 415 838 275 644 275 420 c 0
 275 254 356 144 486 144 c 0
EndSplineSet
EndChar

StartChar: percent
Encoding: 5 37 280
Width: 1805
VWidth: 0
Flags: W
LayerCount: 2
Fore
SplineSet
444 864 m 0
 568 864 618 956 618 1106 c 0
 618 1252 572 1346 445 1346 c 0
 316 1346 270 1248 270 1104 c 0
 270 952 320 864 444 864 c 0
443 730 m 0
 219 730 93 879 93 1104 c 0
 93 1322 222 1480 445 1480 c 0
 670 1480 795 1326 795 1105 c 0
 795 882 665 730 443 730 c 0
361 0 m 1
 1283 1456 l 1
 1457 1456 l 1
 534 0 l 1
 361 0 l 1
1362 111 m 0
 1486 111 1536 203 1536 352 c 0
 1536 499 1491 593 1363 593 c 0
 1233 593 1188 494 1188 350 c 0
 1188 198 1238 111 1362 111 c 0
1360 -24 m 0
 1138 -24 1011 138 1011 351 c 0
 1011 558 1140 727 1363 727 c 0
 1588 727 1712 561 1712 352 c 0
 1712 140 1582 -24 1360 -24 c 0
EndSplineSet
EndChar

StartChar: period
Encoding: 14 46 281
Width: 541
VWidth: 0
Flags: W
LayerCount: 2
Fore
SplineSet
138 0 m 1
 138 240 l 1
 391 240 l 1
 391 0 l 1
 138 0 l 1
EndSplineSet
EndChar

StartChar: periodcentered
Encoding: 117 183 282
Width: 517
VWidth: 0
Flags: W
LayerCount: 2
Fore
SplineSet
132.35 532.7 m 1
 132.35 772.6 l 1
 385.35 772.6 l 1
 385.35 532.7 l 1
 132.35 532.7 l 1
EndSplineSet
EndChar

StartChar: perthousand
Encoding: 411 8240 283
Width: 2629
VWidth: 0
Flags: W
LayerCount: 2
Fore
SplineSet
2184.6 -23.6 m 0
 1961.9 -23.6 1834.6 138.4 1834.6 350.5 c 0
 1834.6 557.55 1964.15 726.9 2187.2 726.9 c 0
 2412.2 726.9 2536.55 560.8 2536.55 352.45 c 0
 2536.55 140.35 2406.65 -23.6 2184.6 -23.6 c 0
2185.9 110.8 m 0
 2309.85 110.8 2359.6 202.6 2359.6 352.45 c 0
 2359.6 498.8 2314.9 592.5 2187.2 592.5 c 0
 2057.55 592.5 2011.55 493.6 2011.55 349.85 c 0
 2011.55 198.05 2061.95 110.8 2185.9 110.8 c 0
EndSplineSet
Refer: 280 37 N 1 0 0 1 0 0 2
EndChar

StartChar: pi
Encoding: 375 960 284
Width: 1288
VWidth: 0
Flags: W
LayerCount: 2
Fore
SplineSet
1056.85 -14.1 m 0
 902.8 -14.1 820.25 66.9 820.25 271.6 c 2
 820.25 870.55 l 1
 518.15 870.55 l 1
 518.15 870.55 483.95 145.6 386.4 0 c 1
 179.65 0 l 1
 283.55 163.35 315.95 558.75 330.15 870.55 c 1
 211.45 867.55 121.65 843.1 71.4 809.55 c 1
 54.4 963 l 1
 103.1 1003.45 201.7 1026 355.95 1026 c 2
 1214 1026 l 1
 1214 870.55 l 1
 1011.95 870.55 l 1
 1011.95 293.25 l 2
 1011.95 233.9 1012.95 149.85 1109.3 149.85 c 0
 1129.65 149.85 1157.3 153.85 1188.65 162.85 c 1
 1187.65 142.85 1185.65 105.85 1185.65 86.5 c 0
 1185.65 55.5 1188.65 31.25 1198 -0.1 c 1
 1146.65 -9.1 1095.2 -14.1 1056.85 -14.1 c 0
EndSplineSet
EndChar

StartChar: plus
Encoding: 11 43 285
Width: 1223
VWidth: 0
Flags: W
LayerCount: 2
Fore
SplineSet
515 95 m 1
 515 502 l 1
 133 502 l 1
 133 675 l 1
 516 675 l 1
 516 1074 l 1
 707 1074 l 1
 707 675 l 1
 1091 675 l 1
 1091 502 l 1
 707 502 l 1
 707 95 l 1
 515 95 l 1
EndSplineSet
EndChar

StartChar: plusminus
Encoding: 112 177 286
Width: 1244
VWidth: 0
Flags: W
LayerCount: 2
Fore
SplineSet
526 266 m 1
 526 593 l 1
 193 593 l 1
 193 763 l 1
 523 763 l 1
 523 1092 l 1
 715 1092 l 1
 715 763 l 1
 1049 763 l 1
 1049 593 l 1
 722 593 l 1
 722 266 l 1
 526 266 l 1
186 0 m 1
 186 142 l 1
 1065 142 l 1
 1065 0 l 1
 186 0 l 1
EndSplineSet
EndChar

StartChar: product
Encoding: 420 8719 287
Width: 1568
VWidth: 0
Flags: W
LayerCount: 2
Fore
SplineSet
271 -100 m 1
 271 1283 l 1
 111 1283 l 1
 111 1456 l 1
 1431 1456 l 1
 1431 1283 l 1
 1292 1283 l 1
 1292 -100 l 1
 1073 -100 l 1
 1073 1283 l 1
 485 1283 l 1
 485 -100 l 1
 271 -100 l 1
EndSplineSet
EndChar

StartChar: q
Encoding: 81 113 288
Width: 1254
VWidth: 0
Flags: W
LayerCount: 2
Fore
SplineSet
889 -412 m 1
 889 128 l 1
 825 51 718 -22 579 -22 c 0
 276 -22 102 215 102 517 c 0
 102 823 282 1052 585 1052 c 0
 707 1052 819 994 890 894 c 1
 890 1026 l 1
 1101 1026 l 1
 1098 973 1093 822 1093 772 c 2
 1093 -412 l 1
 889 -412 l 1
605 145 m 0
 800 145 896 304 896 525 c 0
 896 733 796 885 609 885 c 0
 419 885 318 729 318 512 c 0
 318 301 413 145 605 145 c 0
EndSplineSet
EndChar

StartChar: question
Encoding: 31 63 289
Width: 1044
VWidth: 0
Flags: W
LayerCount: 2
Fore
SplineSet
354 389 m 1
 354 530 l 2
 354 783 722 903 722 1121 c 0
 722 1252 617 1303 487 1303 c 0
 367 1303 242 1256 194 1231 c 1
 194 1412 l 1
 249 1439 371 1481 509 1481 c 0
 747 1481 935 1366 935 1128 c 0
 935 828 520 729 520 477 c 2
 520 389 l 1
 354 389 l 1
340 0 m 1
 340 235 l 1
 533 235 l 1
 533 0 l 1
 340 0 l 1
EndSplineSet
EndChar

StartChar: quotedbl
Encoding: 2 34 291
Width: 762
VWidth: 0
Flags: W
LayerCount: 2
Fore
SplineSet
163 961 m 1
 117 1456 l 1
 326 1456 l 1
 288 961 l 1
 163 961 l 1
483 961 m 1
 437 1456 l 1
 646 1456 l 1
 609 961 l 1
 483 961 l 1
EndSplineSet
EndChar

StartChar: quotedblbase
Encoding: 406 8222 292
Width: 1024
VWidth: 0
Flags: W
LayerCount: 2
Fore
SplineSet
133.15 -229.5 m 1
 240.55 230.9 l 1
 468.05 230.9 l 1
 310.3 -229.5 l 1
 133.15 -229.5 l 1
512.2 -229.5 m 1
 619.95 230.9 l 1
 847.45 230.9 l 1
 686.3 -229.5 l 1
 512.2 -229.5 l 1
EndSplineSet
EndChar

StartChar: quotedblleft
Encoding: 404 8220 293
Width: 1024
VWidth: 0
Flags: W
LayerCount: 2
Fore
SplineSet
153.9 876.45 m 1
 327.55 1456 l 1
 497.6 1456 l 1
 387.85 876.45 l 1
 153.9 876.45 l 1
559.6 876.45 m 1
 726.15 1456 l 1
 897.2 1456 l 1
 788.45 876.45 l 1
 559.6 876.45 l 1
EndSplineSet
EndChar

StartChar: quotedblright
Encoding: 405 8221 294
Width: 1024
VWidth: 0
Flags: W
LayerCount: 2
Fore
SplineSet
192.7 876.45 m 1
 299.1 1456 l 1
 527.3 1456 l 1
 363.55 876.45 l 1
 192.7 876.45 l 1
563.2 876.45 m 1
 671.95 1456 l 1
 898.45 1456 l 1
 736.3 876.45 l 1
 563.2 876.45 l 1
EndSplineSet
EndChar

StartChar: quoteleft
Encoding: 401 8216 295
Width: 534
VWidth: 0
Flags: W
LayerCount: 2
Fore
SplineSet
416.2 876.45 m 1
 280.5 876.45 l 1
 122.35 1456 l 1
 369.7 1456 l 1
 416.2 876.45 l 1
EndSplineSet
EndChar

StartChar: quoteright
Encoding: 402 8217 296
Width: 563
VWidth: 0
Flags: W
LayerCount: 2
Fore
SplineSet
117.9 876.8 m 1
 195.6 1456 l 1
 440.9 1456 l 1
 269.45 876.8 l 1
 117.9 876.8 l 1
EndSplineSet
EndChar

StartChar: quotesinglbase
Encoding: 403 8218 297
Width: 623
VWidth: 0
Flags: W
LayerCount: 2
Fore
SplineSet
141.65 -316.5 m 1
 252.4 230.9 l 1
 472.4 230.9 l 1
 315.5 -316.5 l 1
 141.65 -316.5 l 1
EndSplineSet
EndChar

StartChar: quotesingle
Encoding: 7 39 298
Width: 500
VWidth: 0
Flags: W
LayerCount: 2
Fore
SplineSet
190.3 937.5 m 1
 150.65 1456 l 1
 369.35 1456 l 1
 338.9 937.5 l 1
 190.3 937.5 l 1
EndSplineSet
EndChar

StartChar: r
Encoding: 82 114 299
Width: 807
VWidth: 0
Flags: W
AnchorPoint: "bottom" 338 -3 basechar 0
AnchorPoint: "top" 487 1152 basechar 0
LayerCount: 2
Fore
SplineSet
173 0 m 1
 173 773 l 2
 173 838 159 1026 159 1026 c 1
 377 1026 l 1
 377 874 l 1
 442 985 531 1051 644 1051 c 0
 678 1051 714 1047 749 1038 c 1
 749 856 l 1
 716 866 674 874 631 874 c 0
 485 874 380 768 380 574 c 2
 380 0 l 1
 173 0 l 1
EndSplineSet
EndChar

StartChar: radical
Encoding: 425 8730 301
Width: 1314
VWidth: 0
Flags: W
LayerCount: 2
Fore
SplineSet
675 -148 m 1
 357 663 l 1
 355 663 190 634 190 634 c 1
 158 779 l 1
 490 835 l 1
 744 151 l 1
 1125 1575 l 1
 1304 1575 l 1
 845 -148 l 1
 675 -148 l 1
EndSplineSet
EndChar

StartChar: registered
Encoding: 109 174 304
Width: 1723
VWidth: 0
Flags: HW
LayerCount: 2
Fore
SplineSet
861 1482 m 0
 1277 1482 1617 1144 1617 729 c 0
 1617 314 1277 -22 861 -22 c 0
 446 -22 107 314 107 729 c 0
 107 1144 446 1482 861 1482 c 0
862 82 m 0
 1212 82 1493 375 1493 726 c 0
 1493 1078 1212 1378 862 1378 c 0
 510 1378 229 1078 229 726 c 0
 229 375 510 82 862 82 c 0
715 781 m 1
 824 781 l 2
 970 781 1048 803 1048 908 c 0
 1048 1024 1006 1038 829 1038 c 2
 715 1038 l 1
 715 781 l 1
717 282 m 1
 536 282 l 1
 536 1182 l 1
 830 1182 l 2
 1116 1182 1233 1089 1233 921 c 0
 1233 811 1192 711 1035 676 c 1
 1238 282 l 1
 1037 282 l 1
 864 650 l 1
 717 650 l 1
 717 282 l 1
EndSplineSet
EndChar

StartChar: ring
Encoding: 367 730 305
Width: 651
VWidth: 0
Flags: HW
AnchorPoint: "top" 316 1080 mark 0
LayerCount: 2
Fore
SplineSet
325 1389 m 0
 267 1389 219 1340 219 1280 c 0
 219 1220 267 1171 325 1171 c 0
 384 1171 432 1220 432 1280 c 0
 432 1340 384 1389 325 1389 c 0
327 1482 m 0
 441 1482 534 1397 534 1280 c 0
 534 1164 441 1078 327 1078 c 0
 212 1078 119 1164 119 1280 c 0
 119 1397 212 1482 327 1482 c 0
EndSplineSet
EndChar

StartChar: s
Encoding: 83 115 306
Width: 988
VWidth: 0
Flags: W
AnchorPoint: "bottom" 501 0 basechar 0
AnchorPoint: "top" 500 1152 basechar 0
LayerCount: 2
Fore
SplineSet
533 -22 m 0
 328 -22 186 60 132 103 c 1
 187 256 l 1
 256 204 387 145 516 145 c 0
 617 145 703 176 703 283 c 0
 703 367 634 389 468 447 c 1
 291 510 137 563 137 763 c 0
 137 970 324 1051 505 1051 c 0
 664 1051 785 1004 856 958 c 1
 800 812 l 1
 754 836 639 885 531 885 c 0
 414 885 341 843 341 767 c 0
 342 683 399 671 578 605 c 1
 760 539 897 487 897 287 c 0
 897 57 707 -22 533 -22 c 0
EndSplineSet
EndChar

StartChar: section
Encoding: 102 167 312
Width: 1080
VWidth: 0
Flags: HW
LayerCount: 2
Fore
SplineSet
621 543 m 1
 662 575 710 633 710 696 c 0
 710 795 608 828 505 878 c 1
 463 854 384 796 384 729 c 0
 384 646 480 604 621 543 c 1
509 -71 m 0
 409 -71 297 -52 201 -14 c 1
 201 156 l 1
 312 109 413 87 495 87 c 0
 626 87 710 142 710 234 c 2
 710 235 l 2
 710 306 618 343 403 443 c 1
 267 505 185 591 185 713 c 0
 185 815 268 909 364 957 c 1
 278 1017 209 1083 209 1194 c 0
 209 1390 384 1482 594 1482 c 0
 685 1482 769 1471 858 1442 c 1
 858 1291 l 1
 785 1317 701 1333 626 1333 c 0
 509 1333 414 1295 414 1203 c 0
 414 1133 493 1078 647 1009 c 1
 797 939 922 865 922 721 c 0
 922 620 846 530 757 468 c 1
 844 421 915 352 915 241 c 0
 915 33 730 -71 509 -71 c 0
EndSplineSet
EndChar

StartChar: semicolon
Encoding: 27 59 313
Width: 541
VWidth: 0
Flags: W
LayerCount: 2
Fore
SplineSet
88 -267 m 1
 196 237 l 1
 429 237 l 1
 258 -267 l 1
 88 -267 l 1
176 826 m 1
 176 1066 l 1
 410 1066 l 1
 410 826 l 1
 176 826 l 1
EndSplineSet
EndChar

StartChar: seven
Encoding: 23 55 314
Width: 1244
VWidth: 0
Flags: W
LayerCount: 2
Fore
SplineSet
344 0 m 1
 860 1280 l 1
 166 1280 l 1
 166 1456 l 1
 1102 1456 l 1
 1102 1296 l 1
 572 0 l 1
 344 0 l 1
EndSplineSet
EndChar

StartChar: six
Encoding: 22 54 315
Width: 1244
VWidth: 0
Flags: W
LayerCount: 2
Fore
SplineSet
666 -22 m 0
 312 -22 144 268 144 695 c 0
 144 1127 336 1482 718 1482 c 0
 864 1482 986 1437 1069 1363 c 1
 998 1207 l 1
 921 1268 826 1302 720 1302 c 0
 507 1302 391 1093 369 840 c 0
 367 818 367 796 366 774 c 1
 438 881 546 948 698 948 c 0
 964 948 1151 762 1151 470 c 0
 1151 190 966 -22 666 -22 c 0
666 158 m 0
 832 158 932 291 932 466 c 0
 932 640 845 774 668 774 c 0
 498 774 382 655 382 491 c 0
 382 283 499 158 666 158 c 0
EndSplineSet
EndChar

StartChar: slash
Encoding: 15 47 316
Width: 954
VWidth: 0
Flags: W
LayerCount: 2
Fore
SplineSet
121 0 m 1
 676 1456 l 1
 869 1456 l 1
 309 0 l 1
 121 0 l 1
EndSplineSet
EndChar

StartChar: sterling
Encoding: 98 163 318
Width: 1220
VWidth: 0
Flags: W
LayerCount: 2
Fore
SplineSet
157 0 m 1
 157 161 l 1
 254 238 341 362 341 601 c 2
 341 692 l 1
 152 692 l 1
 152 827 l 1
 339 827 l 1
 339 924 l 2
 339 1233 426 1481 797 1481 c 0
 932 1481 1013 1452 1083 1407 c 1
 1029 1250 l 1
 972 1280 908 1312 808 1310 c 0
 623 1307 548 1198 548 971 c 2
 548 827 l 1
 903 827 l 1
 903 692 l 1
 549 692 l 1
 549 598 l 2
 549 387 469 239 412 172 c 1
 1056 172 l 1
 1056 0 l 1
 157 0 l 1
EndSplineSet
EndChar

StartChar: summation
Encoding: 421 8721 319
Width: 1215
VWidth: 0
Flags: W
LayerCount: 2
Fore
SplineSet
139 -113 m 1
 139 -5 l 1
 632 678 l 1
 160 1349 l 1
 160 1456 l 1
 1062 1456 l 1
 1062 1291 l 1
 413 1291 l 1
 853 683 l 1
 391 57 l 1
 1104 57 l 1
 1104 -113 l 1
 139 -113 l 1
EndSplineSet
EndChar

StartChar: t
Encoding: 84 116 320
Width: 814
VWidth: 0
Flags: W
HStem: 0 159<488.748 736> 889 137<44 239 445 734>
VStem: 239 206<202.13 889 1026 1283>
AnchorPoint: "bottom" 505 0 basechar 0
AnchorPoint: "top" 374 1266 basechar 0
LayerCount: 2
Fore
SplineSet
736 0 m 1
 641 0 l 2
 354 0 239 71 239 362 c 2
 239 889 l 1
 44 889 l 1
 44 1026 l 1
 244 1026 l 1
 244 1283 l 1
 445 1342 l 1
 445 1026 l 1
 734 1026 l 1
 734 889 l 1
 445 889 l 1
 445 350 l 2
 445 181 505 159 736 159 c 1
 736 0 l 1
EndSplineSet
EndChar

StartChar: tbar
Encoding: 293 359 321
Width: 765
VWidth: 0
Flags: W
HStem: 0 159<488.748 736> 564 122<54 676> 889 137<44 239 445 734>
VStem: 239 206<202.13 889 1026 1283>
LayerCount: 2
Fore
SplineSet
54 564 m 1
 54 686 l 1
 676 686 l 1
 676 564 l 1
 54 564 l 1
EndSplineSet
Refer: 320 116 N 1 0 0 1 0 0 2
EndChar

StartChar: thorn
Encoding: 188 254 323
Width: 1233
VWidth: 0
Flags: W
LayerCount: 2
Fore
SplineSet
150 -412 m 1
 150 1460 l 1
 350 1460 l 1
 350 891 l 1
 409 991 533 1051 664 1051 c 0
 984 1051 1134 809 1134 526 c 0
 1134 239 983 -22 664 -22 c 0
 541 -22 415 23 350 122 c 1
 350 -412 l 1
 150 -412 l 1
631 142 m 0
 832 142 918 322 918 521 c 0
 918 708 847 884 638 884 c 0
 421 884 348 697 348 494 c 0
 348 292 445 142 631 142 c 0
EndSplineSet
EndChar

StartChar: three
Encoding: 19 51 324
Width: 1244
VWidth: 0
Flags: W
LayerCount: 2
Fore
SplineSet
593 -22 m 0
 343 -22 183 82 175 87 c 1
 236 250 l 1
 262 237 408 158 572 158 c 0
 757 158 876 255 876 414 c 0
 876 599 720 676 480 673 c 1
 411 671 l 1
 409 851 l 1
 475 851 l 2
 715 851 839 910 839 1104 c 0
 839 1238 702 1302 563 1302 c 0
 398 1302 296 1229 235 1180 c 1
 139 1325 l 1
 258 1431 384 1482 590 1482 c 0
 822 1482 1050 1356 1050 1107 c 0
 1050 944 962 805 783 766 c 1
 974 728 1085 590 1085 406 c 0
 1085 138 863 -22 593 -22 c 0
EndSplineSet
EndChar

StartChar: threequarters
Encoding: 124 190 325
Width: 2256
VWidth: 0
Flags: W
LayerCount: 2
Fore
SplineSet
1354 311 m 1
 1582 311 l 1
 1582 629 l 1
 1354 311 l 1
1584 0 m 1
 1584 191 l 1
 1211 191 l 1
 1211 293 l 1
 1578 804 l 1
 1736 804 l 1
 1736 311 l 1
 1853 311 l 1
 1853 191 l 1
 1735 191 l 1
 1735 0 l 1
 1584 0 l 1
493 602 m 0
 394 602 296 635 222 698 c 1
 283 801 l 1
 354 749 423 725 483 725 c 0
 574 725 637 785 637 864 c 0
 637 944 566 985 451 985 c 0
 377 985 l 1
 377 1105 l 1
 446 1105 l 2
 543 1105 614 1150 614 1223 c 0
 614 1296 559 1340 482 1340 c 0
 416 1340 344 1313 276 1267 c 1
 217 1366 l 1
 297 1424 402 1459 500 1459 c 0
 645 1459 770 1385 770 1238 c 0
 770 1168 729 1096 624 1059 c 1
 741 1025 796 948 796 861 c 0
 796 691 654 602 493 602 c 0
558 0 m 1
 1454 1456 l 1
 1635 1456 l 1
 741 0 l 1
 558 0 l 1
EndSplineSet
EndChar

StartChar: tilde
Encoding: 369 732 326
Width: 690
VWidth: 0
Flags: W
AnchorPoint: "top" 360 1094 mark 0
LayerCount: 2
Fore
SplineSet
3.9 1165.85 m 1
 3.9 1317.55 79.15 1421.5 199.3 1421.5 c 0
 305.2 1421.5 417.5 1323.15 484.3 1319.75 c 0
 527.25 1317.7 547.9 1340.75 551.15 1421.5 c 1
 686.65 1421.5 l 1
 686.65 1254.5 615.3 1156.95 490.45 1160.85 c 0
 401.95 1163.45 276.2 1262.95 208 1262.95 c 0
 168.6 1262.95 142.75 1232.7 135.75 1165.85 c 1
 3.9 1165.85 l 1
EndSplineSet
EndChar

StartChar: trademark
Encoding: 417 8482 327
Width: 1869
VWidth: 0
Flags: W
LayerCount: 2
Fore
SplineSet
829 680 m 1
 829 1455 l 1
 1004 1455 l 1
 1253 890 l 1
 1505 1455 l 1
 1676 1455 l 1
 1676 680 l 1
 1536 680 l 1
 1536 1225 l 1
 1300 680 l 1
 1201 680 l 1
 966 1218 l 1
 966 680 l 1
 829 680 l 1
314 680 m 1
 314 1319 l 1
 72 1319 l 1
 72 1455 l 1
 708 1455 l 1
 708 1319 l 1
 472 1319 l 1
 472 680 l 1
 314 680 l 1
EndSplineSet
EndChar

StartChar: two
Encoding: 18 50 328
Width: 1244
VWidth: 0
Flags: W
LayerCount: 2
Fore
SplineSet
603 1482 m 0
 857 1482 1046 1312 1053 1053 c 0
 1059 841 947 673 759 479 c 2
 465 176 l 1
 1047 176 l 1
 1047 0 l 1
 207 0 l 1
 207 165 l 1
 638 613 l 2
 800 781 853 909 845 1050 c 1
 838 1204 735 1302 588 1302 c 0
 391 1302 227 1174 226 1174 c 2
 158 1340 l 1
 158 1340 333 1482 603 1482 c 0
EndSplineSet
EndChar

StartChar: u
Encoding: 85 117 329
Width: 1221
VWidth: 0
Flags: W
AnchorPoint: "ogonek" 947 0 basechar 0
AnchorPoint: "bottom" 587 0 basechar 0
AnchorPoint: "top" 600 1152 basechar 0
LayerCount: 2
Fore
SplineSet
548 -22 m 0
 270 -22 150 158 150 387 c 2
 150 1026 l 1
 355 1026 l 1
 355 388 l 2
 355 223 439 145 586 145 c 0
 754 145 848 243 848 415 c 2
 848 1026 l 1
 1054 1026 l 1
 1054 261 l 2
 1054 190 1061 36 1064 0 c 1
 852 0 l 1
 848 159 l 1
 810 81 718 -22 548 -22 c 0
EndSplineSet
EndChar

StartChar: underscore
Encoding: 63 95 337
Width: 964
VWidth: 0
Flags: W
LayerCount: 2
Fore
SplineSet
-8 -264 m 1
 -8 -102 l 1
 972 -102 l 1
 972 -264 l 1
 -8 -264 l 1
EndSplineSet
EndChar

StartChar: uni007F
Encoding: 440 127 339
Width: 1521
VWidth: 0
Flags: W
LayerCount: 2
Fore
SplineSet
188 0 m 1
 188 1456 l 1
 1333 1456 l 1
 1333 0 l 1
 188 0 l 1
360 1330 m 1
 360 124 l 1
 1161 124 l 1
 1161 1330 l 1
 360 1330 l 1
EndSplineSet
EndChar

StartChar: uni00AD
Encoding: 108 173 341
Width: 728
VWidth: 0
Flags: W
LayerCount: 2
Fore
SplineSet
59 1191 m 1
 58 1346 l 1
 656 1346 l 1
 656 1191 l 1
 59 1191 l 1
EndSplineSet
EndChar

StartChar: uni00B2
Encoding: 113 178 342
Width: 1157
VWidth: 0
Flags: W
LayerCount: 2
Fore
SplineSet
338 616 m 1
 338 724 l 1
 616 966 750 1104 750 1218 c 0
 750 1284 699 1322 620 1322 c 0
 542 1322 468 1279 417 1210 c 1
 339 1312 l 1
 402 1404 510 1456 629 1456 c 0
 782 1456 902 1372 902 1220 c 0
 902 1052 722 893 531 735 c 1
 897 735 l 1
 897 616 l 1
 338 616 l 1
EndSplineSet
EndChar

StartChar: uni00B3
Encoding: 114 179 343
Width: 1111
VWidth: 0
Flags: W
LayerCount: 2
Fore
SplineSet
575 600 m 0
 477 600 377 633 307 696 c 1
 367 802 l 1
 432 750 506 725 567 725 c 0
 660 725 723 775 723 857 c 0
 723 944 647 984 525 984 c 2
 458 984 l 1
 458 1108 l 1
 519 1108 l 2
 623 1108 699 1142 699 1222 c 0
 699 1297 649 1330 570 1330 c 0
 502 1330 426 1302 362 1256 c 1
 304 1360 l 1
 377 1419 484 1456 581 1456 c 0
 724 1456 846 1379 846 1232 c 0
 846 1159 813 1082 695 1052 c 1
 817 1024 870 944 870 854 c 0
 870 690 736 600 575 600 c 0
EndSplineSet
EndChar

StartChar: uni00B9
Encoding: 119 185 344
Width: 1095
VWidth: 0
Flags: W
LayerCount: 2
Fore
SplineSet
350 610 m 1
 350 742 l 1
 499 742 l 1
 499 1271 l 1
 471 1256 359 1220 325 1207 c 1
 325 1348 l 1
 371 1363 493 1409 523 1427 c 1
 643 1437 l 1
 643 739 l 1
 784 739 l 1
 784 610 l 1
 350 610 l 1
EndSplineSet
EndChar

StartChar: dotlessj
Encoding: 361 567 394
Width: 503
VWidth: 0
Flags: W
AnchorPoint: "top" 259 1152 basechar 0
LayerCount: 2
Fore
SplineSet
22 -418 m 0
 -17 -418 -61 -414 -113 -404 c 1
 -113 -242 l 1
 -67 -252 -38 -255 -18 -255 c 0
 97 -255 159 -162 159 42 c 2
 159 1026 l 1
 348 1026 l 1
 348 102 l 2
 348 -128 315 -418 22 -418 c 0
EndSplineSet
EndChar

StartChar: uni02C9
Encoding: 364 713 395
Width: 723
VWidth: 0
Flags: W
LayerCount: 2
Fore
SplineSet
68 1207 m 1
 68 1354 l 1
 655 1354 l 1
 655 1207 l 1
 68 1207 l 1
EndSplineSet
EndChar

StartChar: dotaccentcmb
Encoding: 371 775 396
Width: 524
VWidth: 0
Flags: W
HStem: 1161 183<170 358>
VStem: 170 188<1161 1344>
AnchorPoint: "top" 254 1057 mark 0
LayerCount: 2
Fore
SplineSet
170 1161 m 5
 170 1344 l 5
 358 1344 l 5
 358 1161 l 5
 170 1161 l 5
EndSplineSet
EndChar

StartChar: dblgravecmb
Encoding: 372 783 397
Width: 969
VWidth: 0
Flags: W
AnchorPoint: "top" 600 1090 mark 0
LayerCount: 2
Fore
SplineSet
348 1174 m 1
 32 1587 l 1
 228 1587 l 1
 488 1174 l 1
 348 1174 l 1
708 1174 m 1
 423 1587 l 1
 619 1587 l 1
 846 1174 l 1
 708 1174 l 1
EndSplineSet
EndChar

StartChar: uni0311
Encoding: 373 785 398
Width: 629
VWidth: 0
Flags: W
HStem: 1318.73 134.756<202.599 432.334>
VStem: 33 122<1190 1271.72> 475 120<1190 1273.76>
AnchorPoint: "top" 310 1136 mark 0
LayerCount: 2
Fore
SplineSet
33 1190 m 1
 46.7857404058 1362.63167555 185.840702023 1453.48178863 322.261345392 1453.48178863 c 0
 454.284474772 1453.48178863 583.84038289 1368.3943734 595 1190 c 1
 475 1190 l 1
 461.532425911 1277.20758177 391.24211574 1318.72580575 319.680424048 1318.72580575 c 0
 245.636228435 1318.72580575 170.230911814 1274.2770499 155 1190 c 1
 33 1190 l 1
EndSplineSet
EndChar

StartChar: uni2015
Encoding: 400 8213 413
Width: 2220
VWidth: 0
Flags: W
HStem: 477 157<86 2134>
LayerCount: 2
Fore
SplineSet
86 477 m 1
 86 634 l 1
 2134 634 l 1
 2134 477 l 1
 86 477 l 1
EndSplineSet
EndChar

StartChar: uni2074
Encoding: 415 8308 414
Width: 1234
VWidth: 0
Flags: W
LayerCount: 2
Fore
SplineSet
704 655 m 1
 704 844 l 1
 328 844 l 1
 328 942 l 1
 695 1456 l 1
 843 1456 l 1
 843 959 l 1
 955 959 l 1
 955 844 l 1
 842 844 l 1
 842 655 l 1
 704 655 l 1
480 959 m 1
 702 959 l 1
 702 1272 l 1
 480 959 l 1
EndSplineSet
EndChar

StartChar: uni2206
Encoding: 419 8710 415
Width: 1310
VWidth: 0
Flags: HW
LayerCount: 2
Fore
SplineSet
60 0 m 1
 60 93 l 1
 563 1414 l 1
 747 1414 l 1
 1247 93 l 1
 1247 0 l 1
 60 0 l 1
283 158 m 1
 1020 158 l 1
 650 1191 l 1
 283 158 l 1
EndSplineSet
EndChar

StartChar: uniFB00
Encoding: 433 64256 418
Width: 1385
VWidth: 0
Flags: W
LayerCount: 2
Fore
SplineSet
904 0 m 1
 904 901 l 1
 441 901 l 1
 441 0 l 1
 252 0 l 1
 252 901 l 1
 69 901 l 1
 69 1026 l 1
 252 1026 l 1
 252 1101 l 2
 252 1364 295 1482 649 1482 c 2
 697 1482 l 1
 694 1335 l 1
 459 1335 441 1291 441 1118 c 2
 441 1026 l 1
 904 1026 l 1
 904 1101 l 2
 904 1364 947 1482 1301 1482 c 2
 1349 1482 l 1
 1346 1335 l 1
 1111 1335 1093 1291 1093 1118 c 2
 1093 1026 l 1
 1337 1026 l 1
 1337 901 l 1
 1093 901 l 1
 1093 0 l 1
 904 0 l 1
EndSplineSet
EndChar

StartChar: uniFB01
Encoding: 434 64257 419
Width: 1237
VWidth: 0
Flags: W
LayerCount: 2
Fore
SplineSet
252 0 m 1
 252 901 l 1
 69 901 l 1
 69 1026 l 1
 252 1026 l 1
 252 1101 l 2
 252 1364 295 1482 649 1482 c 2
 697 1482 l 1
 694 1335 l 1
 459 1335 441 1291 441 1118 c 2
 441 1026 l 1
 916 1026 l 1
 916 901 l 1
 441 901 l 1
 441 0 l 1
 252 0 l 1
EndSplineSet
Refer: 218 105 N 1 0 0 1 715 0 2
EndChar

StartChar: uniFB02
Encoding: 435 64258 420
Width: 1274
VWidth: 0
Flags: W
LayerCount: 2
Fore
SplineSet
454 901 m 1
 454 0 l 1
 266 0 l 1
 266 901 l 1
 69 901 l 1
 69 1026 l 1
 266 1026 l 1
 266 1093 l 2
 266 1358 351 1465 723 1465 c 2
 1110 1465 l 1
 1110 0 l 1
 921 0 l 1
 921 1319 l 1
 738 1319 l 2
 497 1319 454 1273 454 1125 c 2
 454 1026 l 1
 698 1026 l 1
 698 901 l 1
 454 901 l 1
EndSplineSet
EndChar

StartChar: uniFB03
Encoding: 436 64259 421
Width: 1863
VWidth: 0
Flags: HW
LayerCount: 2
Fore
SplineSet
882 0 m 1
 882 901 l 1
 441 901 l 1
 441 0 l 1
 252 0 l 1
 252 901 l 1
 69 901 l 1
 69 1026 l 1
 252 1026 l 1
 252 1100 l 2
 252 1363 295 1481 649 1481 c 2
 697 1481 l 1
 694 1334 l 1
 459 1334 441 1290 441 1117 c 2
 441 1026 l 1
 882 1026 l 1
 882 1100 l 2
 882 1363 924 1481 1278 1481 c 2
 1326 1481 l 1
 1322 1334 l 1
 1087 1334 1071 1290 1071 1117 c 2
 1071 1026 l 1
 1697 1026 l 1
 1697 0 l 1
 1510 0 l 1
 1510 901 l 1
 1071 901 l 1
 1071 0 l 1
 882 0 l 1
1510 1282 m 1
 1510 1456 l 1
 1697 1456 l 1
 1697 1282 l 1
 1510 1282 l 1
EndSplineSet
EndChar

StartChar: uniFB04
Encoding: 437 64260 422
Width: 1942
VWidth: 0
Flags: W
LayerCount: 2
Fore
SplineSet
1125 901 m 1
 1125 0 l 1
 937 0 l 1
 937 901 l 1
 441 901 l 1
 441 0 l 1
 252 0 l 1
 252 901 l 1
 68 901 l 1
 68 1026 l 1
 252 1026 l 1
 252 1101 l 2
 252 1364 294 1482 648 1482 c 2
 696 1482 l 1
 696 1335 l 1
 461 1335 441 1291 441 1118 c 2
 441 1026 l 1
 937 1026 l 1
 937 1093 l 2
 937 1358 1022 1465 1394 1465 c 2
 1778 1465 l 1
 1778 0 l 1
 1589 0 l 1
 1589 1319 l 1
 1409 1319 l 2
 1168 1319 1125 1273 1125 1125 c 2
 1125 1026 l 1
 1369 1026 l 1
 1369 901 l 1
 1125 901 l 1
EndSplineSet
EndChar

StartChar: v
Encoding: 86 118 426
Width: 1076
VWidth: 0
Flags: W
LayerCount: 2
Fore
SplineSet
443 0 m 1
 12 1026 l 1
 238 1026 l 1
 473 419 l 1
 548 218 l 1
 618 419 l 1
 847 1026 l 1
 1067 1026 l 1
 636 0 l 1
 443 0 l 1
EndSplineSet
EndChar

StartChar: w
Encoding: 87 119 427
Width: 1649
VWidth: 0
Flags: HW
AnchorPoint: "bottom" 840 0 basechar 0
AnchorPoint: "top" 843 1024 basechar 0
LayerCount: 2
Fore
SplineSet
559 0 m 1
 375 0 l 1
 24 1026 l 1
 242 1026 l 1
 442 378 l 1
 484 245 l 1
 526 371 l 1
 747 1026 l 1
 938 1026 l 1
 1152 363 l 1
 1191 243 l 1
 1227 361 l 1
 1429 1026 l 1
 1625 1026 l 1
 1268 0 l 1
 1084 0 l 1
 875 630 l 1
 830 769 l 1
 782 631 l 1
 559 0 l 1
EndSplineSet
EndChar

StartChar: x
Encoding: 88 120 432
Width: 1032
VWidth: 0
Flags: W
HStem: 0 21<32 32 32 248 778 778 778 1001> 1006 20<52 276 276 276 781 995 995 995>
LayerCount: 2
Fore
SplineSet
32 0 m 1
 407 508 l 1
 52 1026 l 1
 276 1026 l 1
 518 661 l 1
 781 1026 l 1
 995 1026 l 1
 631 527 l 1
 1001 0 l 1
 778 0 l 1
 519 375 l 1
 248 0 l 1
 32 0 l 1
EndSplineSet
EndChar

StartChar: y
Encoding: 89 121 433
Width: 1090
VWidth: 0
Flags: W
HStem: 1006 20G<44 265.844 844.863 1060>
AnchorPoint: "top" 544 1086 basechar 0
LayerCount: 2
Fore
SplineSet
230 -437 m 1
 145 -297 l 1
 336 -230 420 -137 453 -35 c 1
 468 15 l 1
 44 1026 l 1
 258 1026 l 1
 569 233 l 1
 852 1026 l 1
 1060 1026 l 1
 645 -55 l 2
 568 -256 415 -387 230 -437 c 1
EndSplineSet
EndChar

StartChar: yen
Encoding: 100 165 437
Width: 1240
VWidth: 0
Flags: W
LayerCount: 2
Fore
SplineSet
1068 264 m 1
 166 264 l 1
 166 393 l 1
 551 393 l 1
 551 564 l 1
 166 564 l 1
 166 698 l 1
 1067 698 l 1
 1067 564 l 1
 681 564 l 1
 681 393 l 1
 1068 393 l 1
 1068 264 l 1
EndSplineSet
Refer: 113 89 N 1 0 0 1 0 0 2
EndChar

StartChar: z
Encoding: 90 122 439
Width: 978
VWidth: 0
Flags: W
AnchorPoint: "bottom" 555 0 basechar 0
AnchorPoint: "top" 506 1024 basechar 0
LayerCount: 2
Fore
SplineSet
107 0 m 1
 107 110 l 1
 617 860 l 1
 121 860 l 1
 121 1026 l 1
 883 1026 l 1
 883 918 l 1
 372 165 l 1
 905 165 l 1
 905 0 l 1
 107 0 l 1
EndSplineSet
EndChar

StartChar: zero
Encoding: 16 48 443
Width: 1244
VWidth: 0
Flags: W
LayerCount: 2
Fore
SplineSet
629 158 m 0
 835 158 900 404 900 734 c 0
 900 1045 835 1302 628 1302 c 0
 415 1302 342 1045 342 735 c 0
 342 404 416 158 629 158 c 0
625 -22 m 0
 296 -22 124 287 124 735 c 0
 124 1201 295 1482 627 1482 c 0
 960 1482 1121 1192 1121 734 c 0
 1121 287 960 -22 625 -22 c 0
EndSplineSet
EndChar

StartChar: acutecomb
Encoding: 441 769 444
Width: 0
VWidth: 0
Flags: W
HStem: 1153.9 376.699
VStem: -255 510
AnchorPoint: "top" -171.25 1022 mark 0
LayerCount: 2
UndoRedoHistory
Layer: 0
Undoes
EndUndoes
Redoes
EndRedoes
EndUndoRedoHistory
UndoRedoHistory
Layer: 1
Undoes
EndUndoes
Redoes
EndRedoes
EndUndoRedoHistory
Fore
SplineSet
-255 1153.90039062 m 1
 -9.650390625 1530.59960938 l 1
 255 1531.59960938 l 1
 -76.099609375 1153.90039062 l 1
 -255 1153.90039062 l 1
EndSplineSet
EndChar

StartChar: caroncomb
Encoding: 442 780 445
Width: 0
VWidth: 0
Flags: W
HStem: 1138.75 372.55
AnchorPoint: "top" -14.6748 1042 mark 0
LayerCount: 2
UndoRedoHistory
Layer: 0
Undoes
EndUndoes
Redoes
EndRedoes
EndUndoRedoHistory
UndoRedoHistory
Layer: 1
Undoes
EndUndoes
Redoes
EndRedoes
EndUndoRedoHistory
Fore
SplineSet
-86.5751953125 1138.75 m 5
 -342.375 1511.29980469 l 5
 -157.774414062 1511.29980469 l 5
 -1.7744140625 1277.59960938 l 5
 154.275390625 1511.29980469 l 5
 342.375 1511.29980469 l 5
 87.275390625 1138.75 l 5
 -86.5751953125 1138.75 l 5
EndSplineSet
EndChar

StartChar: circumflexcomb
Encoding: 443 770 446
Width: 0
VWidth: 0
Flags: W
HStem: 1138.75 366.4
VStem: -336.925 673.85
AnchorPoint: "top" 5.3252 1042 mark 0
LayerCount: 2
UndoRedoHistory
Layer: 0
Undoes
EndUndoes
Redoes
EndRedoes
EndUndoRedoHistory
UndoRedoHistory
Layer: 1
Undoes
EndUndoes
Redoes
EndRedoes
EndUndoRedoHistory
Fore
SplineSet
-94.974609375 1505.15039062 m 5
 92.875 1505.15039062 l 5
 336.924804688 1138.75 l 5
 157.225585938 1138.75 l 5
 -1.0751953125 1364.79980469 l 5
 -160.724609375 1138.75 l 5
 -336.924804688 1138.75 l 5
 -94.974609375 1505.15039062 l 5
EndSplineSet
EndChar

StartChar: gravecomb
Encoding: 444 768 447
Width: 0
VWidth: 0
Flags: W
HStem: 1153 379
VStem: -259.5 519
AnchorPoint: "top" 162.5 1022 mark 0
LayerCount: 2
UndoRedoHistory
Layer: 0
Undoes
EndUndoes
Redoes
EndRedoes
EndUndoRedoHistory
UndoRedoHistory
Layer: 1
Undoes
EndUndoes
Redoes
EndRedoes
EndUndoRedoHistory
Fore
SplineSet
81.5 1153 m 5
 -259.5 1532 l 5
 6.5 1532 l 5
 259.5 1153 l 5
 81.5 1153 l 5
EndSplineSet
EndChar

StartChar: uni018F
Encoding: 445 399 448
Width: 1489
VWidth: 0
Flags: W
HStem: -22 180<542.912 894.607> 642 179<290 1153> 1302 184<441.758 890.178>
VStem: 1153 230<462.314 642 821 1011.77>
LayerCount: 2
UndoRedoHistory
Layer: 0
Undoes
EndUndoes
Redoes
EndRedoes
EndUndoRedoHistory
Back
SplineSet
231.215820312 821 m 5
 1232.21582031 821 l 5
 1234.21582031 642 l 5
 233.215820312 642 l 5
 231.215820312 821 l 5
656.215820312 1482 m 4
 1028.21582031 1482 1377.21582031 1233 1377.21582031 740 c 4
 1377.21582031 280 1063.21582031 -22 668.215820312 -22 c 4
 495.215820312 -22 338.215820312 18 200.215820312 130 c 5
 284.215820312 276 l 5
 402.215820312 190 525.215820312 158 650.215820312 158 c 4
 957.215820312 158 1153.21582031 417 1153.21582031 738 c 4
 1153.21582031 1090 936.215820312 1302 644.215820312 1302 c 4
 509.215820312 1302 372.215820312 1258 236.215820312 1154 c 5
 165.215820312 1325 l 5
 312.215820312 1435 482.215820312 1482 656.215820312 1482 c 4
EndSplineSet
UndoRedoHistory
Layer: 1
Undoes
EndUndoes
Redoes
EndRedoes
EndUndoRedoHistory
Fore
SplineSet
1383 740 m 4
 1383 280 1101 -22 746 -22 c 4
 413 -22 79 178 79 794 c 4
 79 803 79 812 79 821 c 5
 1155 821 l 5
 1130 1154 928 1302 683 1302 c 4
 536 1302 373 1249 224 1150 c 5
 153 1321 l 5
 332 1431 522 1486 698 1486 c 4
 1073 1486 1383 1236 1383 740 c 4
290 642 m 5
 314 318 502 158 728 158 c 4
 963 158 1123 367 1153 642 c 5
 290 642 l 5
EndSplineSet
EndChar

StartChar: uni0259
Encoding: 446 601 449
Width: 1168
VWidth: 0
Flags: W
HStem: -22 162<414.348 714.918> 419 140<292 848> 885 167<307.01 700.696>
VStem: 848 218<292.829 419 559 737.281>
LayerCount: 2
UndoRedoHistory
Layer: 1
Undoes
EndUndoes
Redoes
EndRedoes
EndUndoRedoHistory
Fore
SplineSet
530 1052 m 0
 861 1052 1066 839 1066 519 c 0
 1066 212 873.076923077 -22 572 -22 c 0
 262.246085011 -22 112 206.711281071 112 512 c 0
 112 518 113 534 116 559 c 1
 853 559 l 1
 847 777.623145401 708 885 517 885 c 0
 399 885 292 849 196 772 c 1
 136 924 l 1
 247 1010 378 1052 530 1052 c 0
848 419 m 1
 292 419 l 1
 311.95 234.735074627 418 140 565 140 c 0
 713.192567568 140 821.22972973 243.063432836 848 419 c 1
EndSplineSet
EndChar

StartChar: uni02BC
Encoding: 447 700 450
Width: 506
VWidth: 0
Flags: HW
AnchorPoint: "bottom" 300 346 mark 0
LayerCount: 2
UndoRedoHistory
Layer: 1
Undoes
EndUndoes
Redoes
EndRedoes
EndUndoRedoHistory
Fore
SplineSet
65 -267 m 1
 175 237 l 1
 407 237 l 1
 236 -267 l 1
 65 -267 l 1
EndSplineSet
EndChar

StartChar: f_j
Encoding: 454 -1 457
Width: 1237
VWidth: 0
Flags: HW
LayerCount: 2
UndoRedoHistory
Layer: 1
Undoes
EndUndoes
Redoes
EndRedoes
EndUndoRedoHistory
Fore
SplineSet
252 0 m 1
 252 901 l 1
 69 901 l 1
 69 1026 l 1
 252 1026 l 1
 252 1101 l 2
 252 1364 295 1482 649 1482 c 2
 697 1482 l 1
 694 1335 l 1
 459 1335 441 1291 441 1118 c 2
 441 1026 l 1
 916 1026 l 1
 916 901 l 1
 441 901 l 1
 441 0 l 1
 252 0 l 1
EndSplineSet
Refer: 218 105 N 1 0 0 1 715 0 2
EndChar
